<?xml version="1.0" encoding="UTF-8"?>
<svg id="Layer_1" xmlns="http://www.w3.org/2000/svg" version="1.1" viewBox="0 0 32 96">
  <!-- Generator: Adobe Illustrator 29.5.1, SVG Export Plug-In . SVG Version: 2.1.0 Build 141)  -->
  <defs>
    <style>
      .st0, .st1 {
        fill: none;
      }

      .st0, .st1, .st2, .st3 {
        stroke: #000;
        stroke-linejoin: round;
      }

      .st0, .st2 {
        stroke-width: .5px;
      }

      .st4 {
        fill: #f3b229;
      }

      .st1 {
        stroke-width: 1.5px;
      }

      .st1, .st3 {
        stroke-linecap: round;
      }

      .st3 {
        stroke-width: .57px;
      }

      .st5 {
        fill: #103f79;
      }
    </style>
  </defs>
  <g>
    <path class="st5" d="M29,56C29,72.02,16.02,85,0,85s-29-12.98-29-29H29Z"/>
    <path class="st4" d="M-29,56C-29,39.98-16.02,27,0,27s29,12.98,29,29H-29Z"/>
  </g>
  <line class="st1" y1="16" y2="27"/>
  <line class="st1" y1="85" y2="96"/>
  <circle class="st1" cy="56" r="29"/>
  <g>
    <line class="st0" x1="4" y1="76.1" x2="-4" y2="76.1"/>
    <rect class="st2" x="-4.5" y="75.6" width="9" height="1"/>
  </g>
  <polygon class="st2" points="4.5 37.9 .5 37.9 .5 33.9 -.5 33.9 -.5 37.9 -4.5 37.9 -4.5 38.9 -.5 38.9 -.5 42.9 .5 42.9 .5 38.9 4.5 38.9 4.5 37.9"/>
  <polyline class="st1" points="-48 80 -32 80 -24.1 72.1 -24.1 39.9 -32 32 -48 32"/>
  <g>
    <rect class="st3" x="-19" y="48.3" width=".6" height="10.3"/>
    <polygon class="st3" points="-20.3 57.5 -18.6 63.7 -17 57.5 -20.3 57.5"/>
  </g>
</svg>