<?xml version="1.0" encoding="UTF-8"?>
<svg id="Layer_1" xmlns="http://www.w3.org/2000/svg" version="1.1" viewBox="0 0 32 96">
  <!-- Generator: Adobe Illustrator 29.5.1, SVG Export Plug-In . SVG Version: 2.1.0 Build 141)  -->
  <defs>
    <style>
      .st0, .st1 {
        stroke-width: .55px;
      }

      .st0, .st1, .st2, .st3, .st4 {
        stroke: #000;
        stroke-linecap: round;
        stroke-linejoin: round;
      }

      .st1, .st2 {
        fill: none;
      }

      .st5 {
        fill: #f3b229;
      }

      .st2 {
        stroke-width: 1.5px;
      }

      .st3 {
        stroke-width: .57px;
      }

      .st6 {
        fill: #103f79;
      }

      .st4 {
        stroke-width: .5px;
      }
    </style>
  </defs>
  <g>
    <path class="st6" d="M29,56c0,16.02-12.98,29-29,29s-29-12.98-29-29H29Z"/>
    <path class="st5" d="M-29,56c0-16.02,12.98-29,29-29s29,12.98,29,29H-29Z"/>
  </g>
  <line class="st2" y1="16" y2="27"/>
  <line class="st2" y1="85" y2="96"/>
  <circle class="st2" cy="56" r="29"/>
  <polyline class="st2" points="-48 80 -32 80 -24.1 72.1 -24.1 39.9 -32 32 -48 32"/>
  <g>
    <rect class="st3" x="-19" y="48.3" width=".6" height="10.3"/>
    <polygon class="st3" points="-20.3 57.5 -18.6 63.7 -17 57.5 -20.3 57.5"/>
  </g>
  <g>
    <polygon class="st4" points="3.7 52.9 0 39.1 -3.7 52.9 3.7 52.9"/>
    <g>
      <line class="st1" y1="72.4" y2="52.9"/>
      <rect class="st0" x="-.5" y="52.4" width="1" height="20.5"/>
    </g>
  </g>
</svg>