<?xml version="1.0" encoding="UTF-8"?>
<svg id="Layer_1" xmlns="http://www.w3.org/2000/svg" version="1.1" viewBox="0 0 32 96">
  <!-- Generator: Adobe Illustrator 29.5.1, SVG Export Plug-In . SVG Version: 2.1.0 Build 141)  -->
  <defs>
    <style>
      .st0, .st1, .st2 {
        fill: none;
      }

      .st0, .st1, .st2, .st3 {
        stroke: #000;
        stroke-linejoin: round;
      }

      .st0, .st3 {
        stroke-width: .5px;
      }

      .st4 {
        fill: #f3b229;
      }

      .st1 {
        stroke-width: 1.5px;
      }

      .st1, .st2 {
        stroke-linecap: round;
      }

      .st2 {
        stroke-width: 1.5px;
      }

      .st5 {
        fill: #103f79;
      }
    </style>
  </defs>
  <polygon class="st5" points="-28.99 55.99 28.99 55.99 0 84.98 -28.99 55.99"/>
  <polygon class="st4" points="0 27 28.99 55.99 -28.99 55.99 0 27"/>
  <line class="st2" y1="16" y2="27"/>
  <line class="st2" y1="85" y2="96"/>
  <g>
    <line class="st0" x1="4" y1="72.1" x2="-4" y2="72.1"/>
    <rect class="st3" x="-4.5" y="71.6" width="9" height="1"/>
  </g>
  <polygon class="st3" points="4.5 41.9 .5 41.9 .5 37.9 -.5 37.9 -.5 41.9 -4.5 41.9 -4.5 42.9 -.5 42.9 -.5 46.9 .5 46.9 .5 42.9 4.5 42.9 4.5 41.9"/>
  <rect class="st1" x="-20.5" y="35.5" width="41" height="41" transform="translate(-39.6 16.4) rotate(-45)"/>
</svg>