<?xml version="1.0" encoding="UTF-8"?>
<svg id="Layer_1" xmlns="http://www.w3.org/2000/svg" version="1.1" viewBox="0 0 32 64">
  <!-- Generator: Adobe Illustrator 29.5.1, SVG Export Plug-In . SVG Version: 2.1.0 Build 141)  -->
  <defs>
    <style>
      .st0 {
        stroke-width: .55px;
      }

      .st0, .st1 {
        stroke: #000;
        stroke-linecap: round;
        stroke-linejoin: round;
      }

      .st2 {
        fill: #f3b229;
      }

      .st1 {
        fill: none;
        stroke-width: 1.5px;
      }

      .st3 {
        fill: #103f79;
      }
    </style>
  </defs>
  <polygon class="st3" points=".8 18.6 16 44.9 31.2 18.6 .8 18.6"/>
  <polygon class="st2" points="13 39.71 16 44.9 31.2 18.6 25.21 18.6 13 39.71"/>
  <path class="st0" d="M16,46.8L-.8,17.7h33.6s-16.8,29.1-16.8,29.1ZM.8,18.6l15.2,26.3,15.2-26.3s-30.4,0-30.4,0Z"/>
  <path class="st0" d="M16,46.8L-.8,17.7h33.6s-16.8,29.1-16.8,29.1ZM.8,18.6l15.2,26.3,15.2-26.3s-30.4,0-30.4,0Z"/>
  <line class="st1" x1="16" y1="0" x2="16" y2="18.1"/>
  <line class="st1" x1="16" y1="64" x2="16" y2="45.9"/>
  <rect class="st0" x="-.8" y="45.4" width="33.6" height="1"/>
</svg>