<?xml version="1.0" encoding="UTF-8"?>
<svg id="Layer_1" xmlns="http://www.w3.org/2000/svg" version="1.1" viewBox="0 0 32 96">
  <!-- Generator: Adobe Illustrator 29.5.1, SVG Export Plug-In . SVG Version: 2.1.0 Build 141)  -->
  <defs>
    <style>
      .st0 {
        fill: none;
        stroke: #000;
        stroke-linecap: round;
        stroke-linejoin: round;
        stroke-width: 1.5px;
      }

      .st1 {
        fill: #103f79;
        stroke: #103f79;
      }

      .st1, .st2 {
        stroke-miterlimit: 10;
        stroke-width: .5px;
      }

      .st2 {
        fill: #f3b229;
        stroke: #f3b229;
      }
    </style>
  </defs>
  <path class="st0" d="M8.3,40c0-2.3,3.9-3.5,7.7-3.5,6,0,13.5,4.5,13.5,11.4"/>
  <path class="st0" d="M8.3,56c0-2.3,3.9-3.5,7.7-3.5,6,0,13.5,4.5,13.5,11.4"/>
  <path class="st0" d="M8.3,72c0-2.3,3.9-3.5,7.7-3.5,6,0,13.5,4.5,13.5,11.4"/>
  <path class="st0" d="M16,16v4.5c6,0,13.5,4.5,13.5,11.4"/>
  <path class="st0" d="M8.3,40c0-2.3,4.4-3.5,8.2-3.5"/>
  <g>
    <g>
      <path class="st2" d="M44.57,56.06c0-1.58-.03-3.17-.07-4.75"/>
      <path class="st2" d="M45.59,52.12l-1.08-.44-1.06.49c.35-.87.66-1.74.99-2.62.38.85.79,1.71,1.16,2.57Z"/>
    </g>
    <g>
      <path class="st2" d="M44.44,49.55c-.06-1.58-.15-3.16-.26-4.74"/>
      <path class="st2" d="M45.3,45.57l-1.1-.39-1.04.53c.31-.88.59-1.77.88-2.66.42.83.86,1.67,1.26,2.52Z"/>
    </g>
    <g>
      <path class="st2" d="M44.04,43.05c-.13-1.58-.29-3.15-.48-4.72"/>
      <path class="st2" d="M44.72,39.03l-1.12-.34-1.02.58c.27-.89.5-1.79.75-2.7.46.81.94,1.63,1.38,2.45Z"/>
    </g>
    <g>
      <path class="st2" d="M43.34,36.57c-.22-1.57-.45-3.13-.73-4.69"/>
      <path class="st2" d="M43.81,32.52l-1.14-.28-.98.64c.2-.9.41-1.81.59-2.73.53.78,1.02,1.57,1.53,2.37Z"/>
    </g>
    <g>
      <path class="st2" d="M42.29,30.15c-.3-1.55-.65-3.1-1.04-4.63"/>
      <path class="st2" d="M42.49,26.07l-1.15-.2-.93.71c.15-.91.27-1.83.38-2.76.58.73,1.15,1.48,1.71,2.25Z"/>
    </g>
    <g>
      <path class="st2" d="M40.78,23.81c-.43-1.52-.93-3.03-1.5-4.5"/>
      <path class="st2" d="M40.59,19.71l-1.17-.06-.84.81c.04-.91.05-1.84.03-2.77.68.64,1.34,1.32,1.99,2.03Z"/>
    </g>
    <g>
      <path class="st2" d="M38.6,17.68c-.66-1.44-1.4-2.85-2.39-4.09"/>
      <path class="st2" d="M37.58,13.65c-.39.07-.77.15-1.15.23-.2.34-.4.67-.61.99-.16-.87-.41-1.72-.82-2.56.88.3,1.77.77,2.58,1.33Z"/>
    </g>
    <g>
      <path class="st2" d="M35,12.32c-.59-.53-1.29-.94-2.06-1.13-.77-.19-1.59-.12-2.32.19"/>
      <path class="st2" d="M31.21,10.07c-.13.4-.21.8-.25,1.18.26.3.47.61.65.93-.67-.25-1.59-.17-2.47.14.41-.83,1.03-1.68,2.07-2.25Z"/>
    </g>
    <g>
      <path class="st2" d="M29.14,12.32c-1.2,1.04-2.06,2.41-2.82,3.79"/>
      <path class="st2" d="M25.8,14.83c.22.32.46.64.7.95.39.04.77.08,1.15.14-.72.53-1.42,1.12-2.11,1.76.03-.93.11-1.88.26-2.85Z"/>
    </g>
    <g>
      <path class="st2" d="M25.54,17.68c-.66,1.44-1.19,2.93-1.68,4.44"/>
      <path class="st2" d="M23.1,20.99l.88.79,1.16-.1c-.6.69-1.2,1.4-1.78,2.14-.11-.93-.19-1.87-.25-2.82Z"/>
    </g>
    <g>
      <path class="st2" d="M23.36,23.81c-.43,1.52-.82,3.06-1.15,4.61"/>
      <path class="st2" d="M21.34,27.37l.95.69,1.15-.22c-.53.75-1.07,1.52-1.58,2.3-.19-.92-.35-1.84-.51-2.78Z"/>
    </g>
    <g>
      <path class="st2" d="M21.85,30.15c-.31,1.55-.57,3.11-.81,4.68"/>
      <path class="st2" d="M20.11,33.84l.99.63,1.13-.29c-.49.79-.96,1.59-1.44,2.4-.23-.9-.48-1.82-.69-2.73Z"/>
    </g>
    <g>
      <path class="st2" d="M20.8,36.57c-.2,1.57-.39,3.14-.54,4.72"/>
      <polygon class="st2" points="19.27 40.36 20.3 40.93 21.41 40.58 20.1 43.05 19.27 40.36"/>
    </g>
    <g>
      <path class="st2" d="M20.1,43.05c-.13,1.58-.24,3.16-.32,4.74"/>
      <polygon class="st2" points="18.75 46.9 19.8 47.42 20.9 47.02 19.7 49.55 18.75 46.9"/>
    </g>
    <g>
      <path class="st2" d="M19.7,49.55c-.06,1.58-.1,3.16-.12,4.75"/>
      <polygon class="st2" points="18.52 53.45 19.59 53.93 20.67 53.48 19.57 56.06 18.52 53.45"/>
    </g>
  </g>
  <g>
    <g>
      <path class="st2" d="M39.57,56.06c0-1.5-.02-3-.06-4.49"/>
      <polygon class="st2" points="40.6 52.33 39.52 51.91 38.45 52.38 39.45 49.9 40.6 52.33"/>
    </g>
    <g>
      <path class="st2" d="M39.45,49.9c-.05-1.5-.14-2.99-.24-4.49"/>
      <polygon class="st2" points="40.34 46.13 39.24 45.76 38.19 46.26 39.09 43.75 40.34 46.13"/>
    </g>
    <g>
      <path class="st2" d="M39.09,43.75c-.12-1.49-.27-2.98-.44-4.47"/>
      <path class="st2" d="M39.81,39.94l-1.12-.32-1.02.56c.27-.85.52-1.7.77-2.55.46.76.92,1.54,1.36,2.32Z"/>
    </g>
    <g>
      <path class="st2" d="M38.44,37.62c-.19-1.49-.43-2.96-.7-4.44"/>
      <path class="st2" d="M38.94,33.77l-1.14-.25-.98.62c.21-.86.41-1.72.59-2.6.52.73,1.02,1.47,1.52,2.23Z"/>
    </g>
    <g>
      <path class="st2" d="M37.42,31.54c-.31-1.47-.67-2.92-1.11-4.35"/>
      <path class="st2" d="M37.57,27.65l-1.16-.12-.9.72c.12-.86.22-1.74.26-2.63.63.64,1.22,1.33,1.8,2.03Z"/>
    </g>
    <g>
      <path class="st2" d="M35.77,25.61c-.26-.7-.56-1.39-.91-2.05-.35-.66-.75-1.3-1.3-1.82"/>
      <path class="st2" d="M34.92,21.67c-.38.08-.76.19-1.13.32-.16.35-.35.67-.56,1-.15-.75-.33-1.52-1.15-1.93.41-.17.94-.17,1.45-.03.48.15.97.37,1.4.65Z"/>
    </g>
    <g>
      <path class="st2" d="M32.07,21.06c-.77.03-1.41.54-1.88,1.11-.48.58-.84,1.24-1.17,1.91"/>
      <path class="st2" d="M28.45,22.86c.24.32.48.62.73.91.39.03.77.08,1.15.14-.68.47-1.33,1.07-1.95,1.71-.04-.89-.05-1.8.08-2.76Z"/>
    </g>
    <g>
      <path class="st2" d="M28.37,25.61c-.53,1.4-.94,2.85-1.29,4.3"/>
      <path class="st2" d="M26.24,28.89l.93.69,1.15-.16c-.54.69-1.08,1.4-1.6,2.12-.18-.87-.34-1.76-.48-2.66Z"/>
    </g>
    <g>
      <path class="st2" d="M26.72,31.54c-.31,1.47-.57,2.94-.79,4.42"/>
      <path class="st2" d="M24.99,35.02l.99.6,1.13-.27c-.48.74-.95,1.5-1.41,2.26-.25-.86-.48-1.72-.71-2.6Z"/>
    </g>
    <g>
      <path class="st2" d="M25.7,37.62c-.19,1.49-.37,2.97-.5,4.46"/>
      <path class="st2" d="M24.2,41.2l1.03.54,1.11-.33c-.44.77-.87,1.55-1.29,2.34-.29-.84-.57-1.69-.85-2.55Z"/>
    </g>
    <g>
      <path class="st2" d="M25.05,43.75c-.12,1.49-.22,2.99-.29,4.48"/>
      <polygon class="st2" points="23.73 47.39 24.78 47.89 25.87 47.5 24.69 49.9 23.73 47.39"/>
    </g>
    <g>
      <path class="st2" d="M24.69,49.9c-.06,1.5-.09,2.99-.11,4.49"/>
      <polygon class="st2" points="23.52 53.59 24.58 54.05 25.66 53.62 24.57 56.06 23.52 53.59"/>
    </g>
  </g>
  <g>
    <g>
      <path class="st1" d="M19.57,56.06c0,1.58.03,3.17.07,4.75"/>
      <path class="st1" d="M18.55,60l1.08.44,1.06-.49c-.35.87-.66,1.74-.99,2.62-.38-.85-.79-1.71-1.16-2.57Z"/>
    </g>
    <g>
      <path class="st1" d="M19.7,62.57c.06,1.58.15,3.16.26,4.74"/>
      <path class="st1" d="M18.84,66.55l1.1.39,1.04-.53c-.31.88-.59,1.77-.88,2.66-.42-.83-.86-1.67-1.26-2.52Z"/>
    </g>
    <g>
      <path class="st1" d="M20.1,69.07c.13,1.58.29,3.15.48,4.72"/>
      <path class="st1" d="M19.42,73.09l1.12.34,1.02-.58c-.27.89-.5,1.79-.75,2.7-.46-.81-.94-1.63-1.38-2.45Z"/>
    </g>
    <g>
      <path class="st1" d="M20.8,75.55c.22,1.57.45,3.13.73,4.69"/>
      <path class="st1" d="M20.33,79.6l1.14.28.98-.64c-.2.9-.41,1.81-.59,2.73-.53-.78-1.02-1.57-1.53-2.37Z"/>
    </g>
    <g>
      <path class="st1" d="M21.85,81.97c.3,1.55.65,3.1,1.04,4.63"/>
      <path class="st1" d="M21.65,86.05l1.15.2.93-.71c-.15.91-.27,1.83-.38,2.76-.58-.73-1.15-1.48-1.71-2.25Z"/>
    </g>
    <g>
      <path class="st1" d="M23.36,88.31c.43,1.52.93,3.03,1.5,4.5"/>
      <path class="st1" d="M23.56,92.41l1.17.06.84-.81c-.04.91-.05,1.84-.03,2.77-.68-.64-1.34-1.32-1.99-2.03Z"/>
    </g>
    <g>
      <path class="st1" d="M25.54,94.44c.66,1.44,1.4,2.85,2.39,4.09"/>
      <path class="st1" d="M26.56,98.47c.39-.07.77-.15,1.15-.23.2-.34.4-.67.61-.99.16.87.41,1.72.82,2.56-.88-.3-1.77-.77-2.58-1.33Z"/>
    </g>
    <g>
      <path class="st1" d="M29.14,99.8c.59.53,1.29.94,2.06,1.13.77.19,1.59.12,2.32-.19"/>
      <path class="st1" d="M32.93,102.05c.13-.4.21-.8.25-1.18-.26-.3-.47-.61-.65-.93.67.25,1.59.17,2.47-.14-.41.83-1.03,1.68-2.07,2.25Z"/>
    </g>
    <g>
      <path class="st1" d="M35,99.8c1.2-1.04,2.06-2.41,2.82-3.79"/>
      <path class="st1" d="M38.34,97.29c-.22-.32-.46-.64-.7-.95-.39-.04-.77-.08-1.15-.14.72-.53,1.42-1.12,2.11-1.76-.03.93-.11,1.88-.26,2.85Z"/>
    </g>
    <g>
      <path class="st1" d="M38.6,94.44c.66-1.44,1.19-2.93,1.68-4.44"/>
      <path class="st1" d="M41.04,91.13l-.88-.79-1.16.1c.6-.69,1.2-1.4,1.78-2.14.11.93.19,1.87.25,2.82Z"/>
    </g>
    <g>
      <path class="st1" d="M40.78,88.31c.43-1.52.82-3.06,1.15-4.61"/>
      <path class="st1" d="M42.8,84.75l-.95-.69-1.15.22c.53-.75,1.07-1.52,1.58-2.3.19.92.35,1.84.51,2.78Z"/>
    </g>
    <g>
      <path class="st1" d="M42.29,81.97c.31-1.55.57-3.11.81-4.68"/>
      <path class="st1" d="M44.03,78.28l-.99-.63-1.13.29c.49-.79.96-1.59,1.44-2.4.23.9.48,1.82.69,2.73Z"/>
    </g>
    <g>
      <path class="st1" d="M43.34,75.55c.2-1.57.39-3.14.54-4.72"/>
      <polygon class="st1" points="44.87 71.76 43.84 71.19 42.73 71.54 44.04 69.07 44.87 71.76"/>
    </g>
    <g>
      <path class="st1" d="M44.04,69.07c.13-1.58.24-3.16.32-4.74"/>
      <polygon class="st1" points="45.39 65.22 44.34 64.7 43.24 65.1 44.44 62.57 45.39 65.22"/>
    </g>
    <g>
      <path class="st1" d="M44.44,62.57c.06-1.58.1-3.16.12-4.75"/>
      <polygon class="st1" points="45.62 58.67 44.56 58.19 43.47 58.64 44.57 56.06 45.62 58.67"/>
    </g>
  </g>
  <g>
    <g>
      <path class="st1" d="M24.57,56.06c0,1.5.02,3,.06,4.49"/>
      <polygon class="st1" points="23.54 59.79 24.62 60.21 25.69 59.74 24.69 62.22 23.54 59.79"/>
    </g>
    <g>
      <path class="st1" d="M24.69,62.22c.05,1.5.14,2.99.24,4.49"/>
      <polygon class="st1" points="23.8 65.99 24.9 66.36 25.95 65.86 25.05 68.37 23.8 65.99"/>
    </g>
    <g>
      <path class="st1" d="M25.05,68.37c.12,1.49.27,2.98.44,4.47"/>
      <path class="st1" d="M24.33,72.18l1.12.32,1.02-.56c-.27.85-.52,1.7-.77,2.55-.46-.76-.92-1.54-1.36-2.32Z"/>
    </g>
    <g>
      <path class="st1" d="M25.7,74.5c.19,1.49.43,2.96.7,4.44"/>
      <path class="st1" d="M25.2,78.35l1.14.25.98-.62c-.21.86-.41,1.72-.59,2.6-.52-.73-1.02-1.47-1.52-2.23Z"/>
    </g>
    <g>
      <path class="st1" d="M26.72,80.58c.31,1.47.67,2.92,1.11,4.35"/>
      <path class="st1" d="M26.57,84.47l1.16.12.9-.72c-.12.86-.22,1.74-.26,2.63-.63-.64-1.22-1.33-1.8-2.03Z"/>
    </g>
    <g>
      <path class="st1" d="M28.37,86.51c.26.7.56,1.39.91,2.05.35.66.75,1.3,1.3,1.82"/>
      <path class="st1" d="M29.22,90.45c.38-.08.76-.19,1.13-.32.16-.35.35-.67.56-1,.15.75.33,1.52,1.15,1.93-.41.17-.94.17-1.45.03-.48-.15-.97-.37-1.4-.65Z"/>
    </g>
    <g>
      <path class="st1" d="M32.07,91.06c.77-.03,1.41-.54,1.88-1.11.48-.58.84-1.24,1.17-1.91"/>
      <path class="st1" d="M35.69,89.26c-.24-.32-.48-.62-.73-.91-.39-.03-.77-.08-1.15-.14.68-.47,1.33-1.07,1.95-1.71.04.89.05,1.8-.08,2.76Z"/>
    </g>
    <g>
      <path class="st1" d="M35.77,86.51c.53-1.4.94-2.85,1.29-4.3"/>
      <path class="st1" d="M37.9,83.23l-.93-.69-1.15.16c.54-.69,1.08-1.4,1.6-2.12.18.87.34,1.76.48,2.66Z"/>
    </g>
    <g>
      <path class="st1" d="M37.42,80.58c.31-1.47.57-2.94.79-4.42"/>
      <path class="st1" d="M39.15,77.1l-.99-.6-1.13.27c.48-.74.95-1.5,1.41-2.26.25.86.48,1.72.71,2.6Z"/>
    </g>
    <g>
      <path class="st1" d="M38.44,74.5c.19-1.49.37-2.97.5-4.46"/>
      <path class="st1" d="M39.94,70.92l-1.03-.54-1.11.33c.44-.77.87-1.55,1.29-2.34.29.84.57,1.69.85,2.55Z"/>
    </g>
    <g>
      <path class="st1" d="M39.09,68.37c.12-1.49.22-2.99.29-4.48"/>
      <polygon class="st1" points="40.41 64.73 39.36 64.23 38.27 64.62 39.45 62.22 40.41 64.73"/>
    </g>
    <g>
      <path class="st1" d="M39.45,62.22c.06-1.5.09-2.99.11-4.49"/>
      <polygon class="st1" points="40.62 58.53 39.56 58.07 38.48 58.5 39.57 56.06 40.62 58.53"/>
    </g>
  </g>
  <g>
    <g>
      <path class="st2" d="M-9.05,56.06c0-1.58.03-3.17.07-4.75"/>
      <path class="st2" d="M-10.07,52.12l1.08-.44,1.06.49c-.35-.87-.66-1.74-.99-2.62-.38.85-.79,1.71-1.16,2.57Z"/>
    </g>
    <g>
      <path class="st2" d="M-8.92,49.55c.06-1.58.15-3.16.26-4.74"/>
      <path class="st2" d="M-9.78,45.57l1.1-.39,1.04.53c-.31-.88-.59-1.77-.88-2.66-.42.83-.86,1.67-1.26,2.52Z"/>
    </g>
    <g>
      <path class="st2" d="M-8.52,43.05c.13-1.58.29-3.15.48-4.72"/>
      <path class="st2" d="M-9.2,39.03l1.12-.34,1.02.58c-.27-.89-.5-1.79-.75-2.7-.46.81-.94,1.63-1.38,2.45Z"/>
    </g>
    <g>
      <path class="st2" d="M-7.82,36.57c.22-1.57.45-3.13.73-4.69"/>
      <path class="st2" d="M-8.29,32.52l1.14-.28.98.64c-.2-.9-.41-1.81-.59-2.73-.53.78-1.02,1.57-1.53,2.37Z"/>
    </g>
    <g>
      <path class="st2" d="M-6.76,30.15c.3-1.55.65-3.1,1.04-4.63"/>
      <path class="st2" d="M-6.97,26.07l1.15-.2.93.71c-.15-.91-.27-1.83-.38-2.76-.58.73-1.15,1.48-1.71,2.25Z"/>
    </g>
    <g>
      <path class="st2" d="M-5.26,23.81c.43-1.52.93-3.03,1.5-4.5"/>
      <path class="st2" d="M-5.06,19.71l1.17-.06.84.81c-.04-.91-.05-1.84-.03-2.77-.68.64-1.34,1.32-1.99,2.03Z"/>
    </g>
    <g>
      <path class="st2" d="M-3.08,17.68c.66-1.44,1.4-2.85,2.39-4.09"/>
      <path class="st2" d="M-2.06,13.65c.39.07.77.15,1.15.23.2.34.4.67.61.99.16-.87.41-1.72.82-2.56-.88.3-1.77.77-2.58,1.33Z"/>
    </g>
    <g>
      <path class="st2" d="M.52,12.32c.59-.53,1.29-.94,2.06-1.13.77-.19,1.59-.12,2.32.19"/>
      <path class="st2" d="M4.31,10.07c.13.4.21.8.25,1.18-.26.3-.47.61-.65.93.67-.25,1.59-.17,2.47.14-.41-.83-1.03-1.68-2.07-2.25Z"/>
    </g>
    <g>
      <path class="st2" d="M6.38,12.32c1.2,1.04,2.06,2.41,2.82,3.79"/>
      <path class="st2" d="M9.72,14.83c-.22.32-.46.64-.7.95-.39.04-.77.08-1.15.14.72.53,1.42,1.12,2.11,1.76-.03-.93-.11-1.88-.26-2.85Z"/>
    </g>
    <g>
      <path class="st2" d="M9.98,17.68c.66,1.44,1.19,2.93,1.68,4.44"/>
      <path class="st2" d="M12.42,20.99l-.88.79-1.16-.1c.6.69,1.2,1.4,1.78,2.14.11-.93.19-1.87.25-2.82Z"/>
    </g>
    <g>
      <path class="st2" d="M12.16,23.81c.43,1.52.82,3.06,1.15,4.61"/>
      <path class="st2" d="M14.18,27.37l-.95.69-1.15-.22c.53.75,1.07,1.52,1.58,2.3.19-.92.35-1.84.51-2.78Z"/>
    </g>
    <g>
      <path class="st2" d="M13.67,30.15c.31,1.55.57,3.11.81,4.68"/>
      <path class="st2" d="M15.41,33.84l-.99.63-1.13-.29c.49.79.96,1.59,1.44,2.4.23-.9.48-1.82.69-2.73Z"/>
    </g>
    <g>
      <path class="st2" d="M14.72,36.57c.2,1.57.39,3.14.54,4.72"/>
      <polygon class="st2" points="16.25 40.36 15.22 40.93 14.11 40.58 15.42 43.05 16.25 40.36"/>
    </g>
    <g>
      <path class="st2" d="M15.42,43.05c.13,1.58.24,3.16.32,4.74"/>
      <polygon class="st2" points="16.77 46.9 15.72 47.42 14.62 47.02 15.82 49.55 16.77 46.9"/>
    </g>
    <g>
      <path class="st2" d="M15.82,49.55c.06,1.58.1,3.16.12,4.75"/>
      <polygon class="st2" points="17 53.45 15.94 53.93 14.86 53.48 15.95 56.06 17 53.45"/>
    </g>
  </g>
  <g>
    <g>
      <path class="st2" d="M-4.05,56.06c0-1.5.02-3,.06-4.49"/>
      <polygon class="st2" points="-5.08 52.33 -3.99 51.91 -2.93 52.38 -3.93 49.9 -5.08 52.33"/>
    </g>
    <g>
      <path class="st2" d="M-3.93,49.9c.05-1.5.14-2.99.24-4.49"/>
      <polygon class="st2" points="-4.82 46.13 -3.72 45.76 -2.67 46.26 -3.57 43.75 -4.82 46.13"/>
    </g>
    <g>
      <path class="st2" d="M-3.57,43.75c.12-1.49.27-2.98.44-4.47"/>
      <path class="st2" d="M-4.28,39.94l1.12-.32,1.02.56c-.27-.85-.52-1.7-.77-2.55-.46.76-.92,1.54-1.36,2.32Z"/>
    </g>
    <g>
      <path class="st2" d="M-2.92,37.62c.19-1.49.43-2.96.7-4.44"/>
      <path class="st2" d="M-3.42,33.77l1.14-.25.98.62c-.21-.86-.41-1.72-.59-2.6-.52.73-1.02,1.47-1.52,2.23Z"/>
    </g>
    <g>
      <path class="st2" d="M-1.9,31.54c.31-1.47.67-2.92,1.11-4.35"/>
      <path class="st2" d="M-2.05,27.65l1.16-.12.9.72c-.12-.86-.22-1.74-.26-2.63-.63.64-1.22,1.33-1.8,2.03Z"/>
    </g>
    <g>
      <path class="st2" d="M-.24,25.61c.26-.7.56-1.39.91-2.05.35-.66.75-1.3,1.3-1.82"/>
      <path class="st2" d="M.6,21.67c.38.08.76.19,1.13.32.16.35.35.67.56,1,.15-.75.33-1.52,1.15-1.93-.41-.17-.94-.17-1.45-.03-.48.15-.97.37-1.4.65Z"/>
    </g>
    <g>
      <path class="st2" d="M3.45,21.06c.77.03,1.41.54,1.88,1.11.48.58.84,1.24,1.17,1.91"/>
      <path class="st2" d="M7.07,22.86c-.24.32-.48.62-.73.91-.39.03-.77.08-1.15.14.68.47,1.33,1.07,1.95,1.71.04-.89.05-1.8-.08-2.76Z"/>
    </g>
    <g>
      <path class="st2" d="M7.15,25.61c.53,1.4.94,2.85,1.29,4.3"/>
      <path class="st2" d="M9.29,28.89l-.93.69-1.15-.16c.54.69,1.08,1.4,1.6,2.12.18-.87.34-1.76.48-2.66Z"/>
    </g>
    <g>
      <path class="st2" d="M8.8,31.54c.31,1.47.57,2.94.79,4.42"/>
      <path class="st2" d="M10.53,35.02l-.99.6-1.13-.27c.48.74.95,1.5,1.41,2.26.25-.86.48-1.72.71-2.6Z"/>
    </g>
    <g>
      <path class="st2" d="M9.83,37.62c.19,1.49.37,2.97.5,4.46"/>
      <path class="st2" d="M11.32,41.2l-1.03.54-1.11-.33c.44.77.87,1.55,1.29,2.34.29-.84.57-1.69.85-2.55Z"/>
    </g>
    <g>
      <path class="st2" d="M10.47,43.75c.12,1.49.22,2.99.29,4.48"/>
      <polygon class="st2" points="11.79 47.39 10.74 47.89 9.65 47.5 10.83 49.9 11.79 47.39"/>
    </g>
    <g>
      <path class="st2" d="M10.83,49.9c.06,1.5.09,2.99.11,4.49"/>
      <polygon class="st2" points="12.01 53.59 10.94 54.05 9.86 53.62 10.95 56.06 12.01 53.59"/>
    </g>
  </g>
  <g>
    <g>
      <path class="st1" d="M15.95,56.06c0,1.58-.03,3.17-.07,4.75"/>
      <path class="st1" d="M16.98,60l-1.08.44-1.06-.49c.35.87.66,1.74.99,2.62.38-.85.79-1.71,1.16-2.57Z"/>
    </g>
    <g>
      <path class="st1" d="M15.82,62.57c-.06,1.58-.15,3.16-.26,4.74"/>
      <path class="st1" d="M16.68,66.55l-1.1.39-1.04-.53c.31.88.59,1.77.88,2.66.42-.83.86-1.67,1.26-2.52Z"/>
    </g>
    <g>
      <path class="st1" d="M15.42,69.07c-.13,1.58-.29,3.15-.48,4.72"/>
      <path class="st1" d="M16.1,73.09l-1.12.34-1.02-.58c.27.89.5,1.79.75,2.7.46-.81.94-1.63,1.38-2.45Z"/>
    </g>
    <g>
      <path class="st1" d="M14.72,75.55c-.22,1.57-.45,3.13-.73,4.69"/>
      <path class="st1" d="M15.2,79.6l-1.14.28-.98-.64c.2.9.41,1.81.59,2.73.53-.78,1.02-1.57,1.53-2.37Z"/>
    </g>
    <g>
      <path class="st1" d="M13.67,81.97c-.3,1.55-.65,3.1-1.04,4.63"/>
      <path class="st1" d="M13.87,86.05l-1.15.2-.93-.71c.15.91.27,1.83.38,2.76.58-.73,1.15-1.48,1.71-2.25Z"/>
    </g>
    <g>
      <path class="st1" d="M12.16,88.31c-.43,1.52-.93,3.03-1.5,4.5"/>
      <path class="st1" d="M11.97,92.41l-1.17.06-.84-.81c.04.91.05,1.84.03,2.77.68-.64,1.34-1.32,1.99-2.03Z"/>
    </g>
    <g>
      <path class="st1" d="M9.98,94.44c-.66,1.44-1.4,2.85-2.39,4.09"/>
      <path class="st1" d="M8.96,98.47c-.39-.07-.77-.15-1.15-.23-.2-.34-.4-.67-.61-.99-.16.87-.41,1.72-.82,2.56.88-.3,1.77-.77,2.58-1.33Z"/>
    </g>
    <g>
      <path class="st1" d="M6.38,99.8c-.59.53-1.29.94-2.06,1.13-.77.19-1.59.12-2.32-.19"/>
      <path class="st1" d="M2.6,102.05c-.13-.4-.21-.8-.25-1.18.26-.3.47-.61.65-.93-.67.25-1.59.17-2.47-.14.41.83,1.03,1.68,2.07,2.25Z"/>
    </g>
    <g>
      <path class="st1" d="M.52,99.8c-1.2-1.04-2.06-2.41-2.82-3.79"/>
      <path class="st1" d="M-2.82,97.29c.22-.32.46-.64.7-.95.39-.04.77-.08,1.15-.14-.72-.53-1.42-1.12-2.11-1.76.03.93.11,1.88.26,2.85Z"/>
    </g>
    <g>
      <path class="st1" d="M-3.08,94.44c-.66-1.44-1.19-2.93-1.68-4.44"/>
      <path class="st1" d="M-5.51,91.13l.88-.79,1.16.1c-.6-.69-1.2-1.4-1.78-2.14-.11.93-.19,1.87-.25,2.82Z"/>
    </g>
    <g>
      <path class="st1" d="M-5.26,88.31c-.43-1.52-.82-3.06-1.15-4.61"/>
      <path class="st1" d="M-7.28,84.75l.95-.69,1.15.22c-.53-.75-1.07-1.52-1.58-2.3-.19.92-.35,1.84-.51,2.78Z"/>
    </g>
    <g>
      <path class="st1" d="M-6.76,81.97c-.31-1.55-.57-3.11-.81-4.68"/>
      <path class="st1" d="M-8.5,78.28l.99-.63,1.13.29c-.49-.79-.96-1.59-1.44-2.4-.23.9-.48,1.82-.69,2.73Z"/>
    </g>
    <g>
      <path class="st1" d="M-7.82,75.55c-.2-1.57-.39-3.14-.54-4.72"/>
      <polygon class="st1" points="-9.34 71.76 -8.32 71.19 -7.21 71.54 -8.52 69.07 -9.34 71.76"/>
    </g>
    <g>
      <path class="st1" d="M-8.52,69.07c-.13-1.58-.24-3.16-.32-4.74"/>
      <polygon class="st1" points="-9.86 65.22 -8.82 64.7 -7.72 65.1 -8.92 62.57 -9.86 65.22"/>
    </g>
    <g>
      <path class="st1" d="M-8.92,62.57c-.06-1.58-.1-3.16-.12-4.75"/>
      <polygon class="st1" points="-10.1 58.67 -9.03 58.19 -7.95 58.64 -9.05 56.06 -10.1 58.67"/>
    </g>
  </g>
  <g>
    <g>
      <path class="st1" d="M10.95,56.06c0,1.5-.02,3-.06,4.49"/>
      <polygon class="st1" points="11.98 59.79 10.9 60.21 9.84 59.74 10.83 62.22 11.98 59.79"/>
    </g>
    <g>
      <path class="st1" d="M10.83,62.22c-.05,1.5-.14,2.99-.24,4.49"/>
      <polygon class="st1" points="11.72 65.99 10.62 66.36 9.58 65.86 10.47 68.37 11.72 65.99"/>
    </g>
    <g>
      <path class="st1" d="M10.47,68.37c-.12,1.49-.27,2.98-.44,4.47"/>
      <path class="st1" d="M11.19,72.18l-1.12.32-1.02-.56c.27.85.52,1.7.77,2.55.46-.76.92-1.54,1.36-2.32Z"/>
    </g>
    <g>
      <path class="st1" d="M9.83,74.5c-.19,1.49-.43,2.96-.7,4.44"/>
      <path class="st1" d="M10.32,78.35l-1.14.25-.98-.62c.21.86.41,1.72.59,2.6.52-.73,1.02-1.47,1.52-2.23Z"/>
    </g>
    <g>
      <path class="st1" d="M8.8,80.58c-.31,1.47-.67,2.92-1.11,4.35"/>
      <path class="st1" d="M8.95,84.47l-1.16.12-.9-.72c.12.86.22,1.74.26,2.63.63-.64,1.22-1.33,1.8-2.03Z"/>
    </g>
    <g>
      <path class="st1" d="M7.15,86.51c-.26.7-.56,1.39-.91,2.05-.35.66-.75,1.3-1.3,1.82"/>
      <path class="st1" d="M6.3,90.45c-.38-.08-.76-.19-1.13-.32-.16-.35-.35-.67-.56-1-.15.75-.33,1.52-1.15,1.93.41.17.94.17,1.45.03.48-.15.97-.37,1.4-.65Z"/>
    </g>
    <g>
      <path class="st1" d="M3.45,91.06c-.77-.03-1.41-.54-1.88-1.11-.48-.58-.84-1.24-1.17-1.91"/>
      <path class="st1" d="M-.17,89.26c.24-.32.48-.62.73-.91.39-.03.77-.08,1.15-.14-.68-.47-1.33-1.07-1.95-1.71-.04.89-.05,1.8.08,2.76Z"/>
    </g>
    <g>
      <path class="st1" d="M-.24,86.51c-.53-1.4-.94-2.85-1.29-4.3"/>
      <path class="st1" d="M-2.38,83.23l.93-.69,1.15.16c-.54-.69-1.08-1.4-1.6-2.12-.18.87-.34,1.76-.48,2.66Z"/>
    </g>
    <g>
      <path class="st1" d="M-1.9,80.58c-.31-1.47-.57-2.94-.79-4.42"/>
      <path class="st1" d="M-3.63,77.1l.99-.6,1.13.27c-.48-.74-.95-1.5-1.41-2.26-.25.86-.48,1.72-.71,2.6Z"/>
    </g>
    <g>
      <path class="st1" d="M-2.92,74.5c-.19-1.49-.37-2.97-.5-4.46"/>
      <path class="st1" d="M-4.42,70.92l1.03-.54,1.11.33c-.44-.77-.87-1.55-1.29-2.34-.29.84-.57,1.69-.85,2.55Z"/>
    </g>
    <g>
      <path class="st1" d="M-3.57,68.37c-.12-1.49-.22-2.99-.29-4.48"/>
      <polygon class="st1" points="-4.89 64.73 -3.84 64.23 -2.75 64.62 -3.93 62.22 -4.89 64.73"/>
    </g>
    <g>
      <path class="st1" d="M-3.93,62.22c-.06-1.5-.09-2.99-.11-4.49"/>
      <polygon class="st1" points="-5.1 58.53 -4.03 58.07 -2.95 58.5 -4.05 56.06 -5.1 58.53"/>
    </g>
  </g>
  <path class="st0" d="M8.3,40c0,2.3,3.9,3.5,7.7,3.5,6,0,13.5-4.5,13.5-11.4"/>
  <path class="st0" d="M8.3,56c0,2.3,3.9,3.5,7.7,3.5,6,0,13.5-4.5,13.5-11.4"/>
  <path class="st0" d="M8.3,72c0,2.3,3.9,3.5,7.7,3.5,6,0,13.5-4.5,13.5-11.4"/>
  <path class="st0" d="M16,96v-4.5c6,0,13.5-4.5,13.5-11.4"/>
</svg>