<?xml version="1.0" encoding="UTF-8"?>
<svg id="Layer_1" xmlns="http://www.w3.org/2000/svg" version="1.1" viewBox="0 0 80 96">
  <!-- Generator: Adobe Illustrator 29.5.1, SVG Export Plug-In . SVG Version: 2.1.0 Build 141)  -->
  <defs>
    <style>
      .st0 {
        fill: #fff;
      }

      .st1 {
        fill: #f3b229;
      }

      .st2 {
        stroke: #fff;
      }

      .st2, .st3 {
        fill: none;
        stroke-linecap: round;
        stroke-linejoin: round;
        stroke-width: 1.5px;
      }

      .st3 {
        stroke: #000;
      }

      .st4 {
        fill: #103f79;
      }
    </style>
  </defs>
  <g>
    <path class="st4" d="M80.7,48c0,23.97-19.43,43.4-43.4,43.4S-6.1,71.97-6.1,48c0,0,86.8,0,86.8,0Z"/>
    <path class="st1" d="M-6.1,48C-6.1,24.03,13.33,4.6,37.3,4.6s43.4,19.43,43.4,43.4H-6.1Z"/>
  </g>
  <line class="st2" y1="64" x2="25.8" y2="64"/>
  <line class="st2" x1="25.9" y1="25.9" x2="47.9" y2="25.9"/>
  <line class="st3" x1="48" y1="25.8" x2="48" y2="0"/>
  <line class="st2" x1="48" y1="25.8" x2="48" y2="5.97"/>
  <line class="st2" x1="47.9" y1="70.1" x2="25.9" y2="70.1"/>
  <line class="st3" x1="48" y1="96" x2="48" y2="70.2"/>
  <line class="st2" x1="48" y1="89.91" x2="48" y2="70.2"/>
  <line class="st2" x1="25.8" y1="18" x2="25.8" y2="78"/>
  <path class="st0" d="M10.9,59.3c-.3-.1-.5.1-.5.4v8.6c0,.3.3.5.5.4l15.2-4.7s-15.2-4.7-15.2-4.7Z"/>
  <circle class="st3" cx="37.3" cy="48" r="43.4"/>
</svg>