<?xml version="1.0" encoding="UTF-8"?>
<svg id="Layer_1" xmlns="http://www.w3.org/2000/svg" version="1.1" viewBox="0 0 80 96">
  <!-- Generator: Adobe Illustrator 29.5.1, SVG Export Plug-In . SVG Version: 2.1.0 Build 141)  -->
  <defs>
    <style>
      .st0 {
        fill: #fff;
      }

      .st1 {
        fill: none;
        stroke: #000;
        stroke-linecap: round;
        stroke-linejoin: round;
        stroke-width: 1.5px;
      }
    </style>
  </defs>
  <line class="st1" y1="80" x2="21" y2="80"/>
  <line class="st1" x1="48" y1="22.9" x2="48"/>
  <polyline class="st1" points="21.1 79.9 21.1 48 21.1 16"/>
  <path class="st0" d="M48,0"/>
  <circle class="st1" cx="37.3" cy="48" r="43.4"/>
  <line class="st1" x1="43.1" y1="48" x2="47.9" y2="48"/>
  <line class="st1" x1="48" y1="73" x2="26.9" y2="73"/>
  <line class="st1" x1="26.9" y1="23" x2="47.9" y2="23"/>
  <line class="st1" x1="48" y1="96" x2="48" y2="73"/>
  <g>
    <line class="st1" x1="26.8" y1="38" x2="26.8" y2="58"/>
    <line class="st1" x1="26.8" y1="13" x2="26.8" y2="33"/>
    <line class="st1" x1="26.8" y1="63" x2="26.8" y2="83"/>
  </g>
  <path d="M42.7,43.3c.3-.1.5.1.5.4v8.6c0,.3-.3.5-.5.4l-15.2-4.7s15.2-4.7,15.2-4.7Z"/>
</svg>