<?xml version="1.0" encoding="UTF-8"?>
<svg id="Layer_1" xmlns="http://www.w3.org/2000/svg" version="1.1" viewBox="0 0 111.8 96">
  <!-- Generator: Adobe Illustrator 29.5.1, SVG Export Plug-In . SVG Version: 2.1.0 Build 141)  -->
  <defs>
    <style>
      .st0 {
        stroke-linecap: square;
      }

      .st0, .st1, .st2, .st3 {
        stroke-linejoin: round;
        stroke-width: 1.5px;
      }

      .st0, .st2, .st3 {
        fill: none;
      }

      .st0, .st3 {
        stroke: #000;
      }

      .st4, .st1 {
        fill: #fff;
      }

      .st1, .st2 {
        stroke: #fff;
      }

      .st1, .st2, .st3 {
        stroke-linecap: round;
      }

      .st5 {
        fill: #f3b229;
      }

      .st6 {
        fill: #103f79;
      }
    </style>
  </defs>
  <g>
    <path class="st6" d="M96.7,48c0,23.97-19.43,43.4-43.4,43.4S9.9,71.97,9.9,48h86.8Z"/>
    <path class="st5" d="M9.9,48C9.9,24.03,29.33,4.6,53.3,4.6s43.4,19.43,43.4,43.4H9.9Z"/>
  </g>
  <line class="st0" y1="48" x2="35.6" y2="48"/>
  <line class="st1" x1="9.9" y1="48" x2="35.6" y2="48"/>
  <line class="st1" x1="36.1" y1="30.6" x2="64" y2="10"/>
  <line class="st1" x1="64" y1="86" x2="36.1" y2="65.4"/>
  <line class="st3" x1="64" y1="96" x2="64" y2="86.1"/>
  <line class="st2" x1="64" y1="90.07" x2="64" y2="86.1"/>
  <line class="st3" x1="64" y1="9.9" x2="64" y2="0"/>
  <line class="st2" x1="64" y1="9.9" x2="64" y2="5.9"/>
  <line class="st1" x1="35.8" y1="20.9" x2="35.8" y2="73.7"/>
  <circle class="st3" cx="53.3" cy="48" r="43.4"/>
  <path class="st4" d="M62.8,85.2l-15-5.2c-.2-.1-.3-.4-.2-.6l5.2-7.1c.1-.2.4-.2.6,0l9.4,12.9h0Z"/>
</svg>