<?xml version="1.0" encoding="UTF-8"?>
<svg id="Layer_1" xmlns="http://www.w3.org/2000/svg" version="1.1" viewBox="0 0 32 64">
  <!-- Generator: Adobe Illustrator 29.5.1, SVG Export Plug-In . SVG Version: 2.1.0 Build 141)  -->
  <defs>
    <style>
      .st0, .st1 {
        fill: none;
      }

      .st0, .st1, .st2, .st3 {
        stroke-linejoin: round;
      }

      .st0, .st1, .st3 {
        stroke: #000;
      }

      .st0, .st2, .st3 {
        stroke-width: .5px;
      }

      .st4 {
        fill: #f3b229;
      }

      .st1 {
        stroke-linecap: round;
        stroke-width: 1.5px;
      }

      .st2 {
        fill: #fff;
        stroke: #fff;
      }

      .st5 {
        fill: #103f79;
      }
    </style>
  </defs>
  <polygon class="st5" points="-80 48 -192 104 -192 -8 -80 48"/>
  <polygon class="st4" points="-97.49 39.25 -192 39.25 -192 48 -192 56.75 -97.49 56.75 -80 48 -97.49 39.25"/>
  <polygon class="st4" points="-168.35 92.17 -150.85 83.42 -150.85 12.58 -168.35 3.83 -168.35 92.17"/>
  <polygon class="st1" points="-192 104 -192 -8 -80 48 -192 104"/>
  <g>
    <line class="st0" x1="-175.2" y1="80" x2="-183.2" y2="80"/>
    <rect class="st3" x="-183.7" y="79.5" width="9" height="1"/>
  </g>
  <g>
    <line class="st0" x1="-175.2" y1="16" x2="-183.2" y2="16"/>
    <rect class="st2" x="-183.7" y="15.5" width="9" height="1"/>
  </g>
  <polygon class="st2" points="-174.7 79.5 -178.7 79.5 -178.7 75.5 -179.7 75.5 -179.7 79.5 -183.7 79.5 -183.7 80.5 -179.7 80.5 -179.7 84.5 -178.7 84.5 -178.7 80.5 -174.7 80.5 -174.7 79.5"/>
</svg>