<?xml version="1.0" encoding="UTF-8"?>
<svg id="Layer_1" xmlns="http://www.w3.org/2000/svg" version="1.1" viewBox="0 0 32 64">
  <!-- Generator: Adobe Illustrator 29.5.1, SVG Export Plug-In . SVG Version: 2.1.0 Build 141)  -->
  <defs>
    <style>
      .st0 {
        fill: #f3b229;
      }

      .st1 {
        fill: none;
        stroke: #000;
        stroke-linecap: round;
        stroke-width: 1.5px;
      }

      .st1, .st2 {
        stroke-linejoin: round;
      }

      .st2 {
        fill: #fff;
        stroke: #fff;
        stroke-width: .5px;
      }

      .st3 {
        fill: #103f79;
      }
    </style>
  </defs>
  <polygon class="st3" points="-80 48 -165.13 104.2 -192 104 -192 -8 -164.59 -7.59 -80 48"/>
  <polygon class="st0" points="-97.49 39.25 -192 39.25 -192 48 -192 56.75 -97.49 56.75 -80 48 -97.49 39.25"/>
  <polygon class="st0" points="-168.35 -7.65 -168.35 104.18 -165.13 104.2 -150.85 94.77 -150.85 1.44 -164.59 -7.59 -168.35 -7.65"/>
  <path class="st1" d="M-192,48.1V-8h24.58c1.97,0,3.89.58,5.53,1.67l81.89,54.33v.2l-81.89,54.33c-1.64,1.09-3.56,1.67-5.53,1.67h-24.58v-56.1Z"/>
  <g>
    <line class="st2" x1="-176.2" y1="16" x2="-184.2" y2="16"/>
    <rect class="st2" x="-184.7" y="15.5" width="9" height="1"/>
  </g>
  <polygon class="st2" points="-175.7 79.5 -179.7 79.5 -179.7 75.5 -180.7 75.5 -180.7 79.5 -184.7 79.5 -184.7 80.5 -180.7 80.5 -180.7 84.5 -179.7 84.5 -179.7 80.5 -175.7 80.5 -175.7 79.5"/>
</svg>