<?xml version="1.0" encoding="UTF-8"?>
<svg id="Layer_1" xmlns="http://www.w3.org/2000/svg" version="1.1" viewBox="0 0 111.8 96">
  <!-- Generator: Adobe Illustrator 29.5.1, SVG Export Plug-In . SVG Version: 2.1.0 Build 141)  -->
  <defs>
    <style>
      .st0 {
        fill: #fff;
      }

      .st1 {
        fill: #f3b229;
      }

      .st2 {
        stroke: #fff;
      }

      .st2, .st3 {
        fill: none;
        stroke-linecap: round;
        stroke-linejoin: round;
        stroke-width: 1.5px;
      }

      .st3 {
        stroke: #000;
      }

      .st4 {
        fill: #103f79;
      }
    </style>
  </defs>
  <g>
    <path class="st4" d="M9.9,48.28C9.9,24.31,29.33,4.88,53.3,4.88s43.4,19.43,43.4,43.4c0,0-86.8,0-86.8,0Z"/>
    <path class="st1" d="M96.7,48.28c0,23.97-19.43,43.4-43.4,43.4S9.9,72.25,9.9,48.28h86.8Z"/>
  </g>
  <line class="st3" y1="48" x2="35.7" y2="48"/>
  <line class="st2" x1="35.8" y1="30.8" x2="64" y2="10"/>
  <line class="st3" x1="64" y1="9.9" x2="64" y2="0"/>
  <line class="st3" x1="64" y1="86.1" x2="64" y2="96"/>
  <line class="st2" x1="9.9" y1="48" x2="35.7" y2="48"/>
  <line class="st2" x1="64" y1="9.9" x2="64" y2="5.93"/>
  <line class="st2" x1="64" y1="86.1" x2="64" y2="90.07"/>
  <line class="st2" x1="35.8" y1="65.3" x2="64" y2="86"/>
  <line class="st2" x1="35.8" y1="20.9" x2="35.8" y2="73.7"/>
  <circle class="st3" cx="53.3" cy="48" r="43.4"/>
  <path class="st0" d="M42.3,70.1l15,5.2c.2.1.3.4.2.6l-5.2,7.1c-.1.2-.4.2-.6,0l-9.4-12.9h0Z"/>
</svg>