<?xml version="1.0" encoding="UTF-8"?>
<svg id="Layer_1" xmlns="http://www.w3.org/2000/svg" version="1.1" viewBox="0 0 64 64">
  <!-- Generator: Adobe Illustrator 29.5.1, SVG Export Plug-In . SVG Version: 2.1.0 Build 141)  -->
  <defs>
    <style>
      .st0 {
        fill: #fff;
      }

      .st1 {
        fill: #f3b229;
      }

      .st2 {
        fill: none;
        stroke: #000;
        stroke-linecap: round;
        stroke-linejoin: round;
        stroke-width: 1.5px;
      }

      .st3 {
        fill: #103f79;
      }
    </style>
  </defs>
  <path class="st3" d="M57,26.5c-16.8,0-30.5,13.7-30.5,30.5H6C6,28.8,28.8,6,57,6v20.5"/>
  <path class="st1" d="M16.17,26.41c-3.97,5.29-6.93,11.39-8.6,18h21.67c4.81-10.55,15.45-17.91,27.76-17.91v-.09H16.17Z"/>
  <path class="st0" d="M26.92,24.43c-.07-.07-.03-1.87,0-2.11.02-.2.22-.09.21-.28,0-.3-.27-.61-.3-.98-.09-1.03.39-1.9,1.37-2.25l9.81-.05,2.36,2.84,2.35-2.83h8.16v3.37s.14.15.15.15h2.98v2.25h-11.04v-2.15c-.23-.06-.16.06-.22.13-.33.37-1.44,1.96-1.78,2.02-.22.04-1.04.03-1.22-.05l-1.81-1.9c-.31-.04-.05.21-.05.24v1.47s-.14.15-.15.15h-10.8ZM31.9,19.34h-3.47s-.47.27-.54.34c-.81.8-.5,2.34.68,2.45.36.03.81.01,1.22.04.29.02.73-.06.96.01.35.11.03.57-.08.57h-3.03c-.2,0-.1.98-.05.98h3.76s.35-.25.39-.29c.48-.47.58-1.21.23-1.79-.07-.11-.57-.55-.62-.55h-2.64c-.16,0-.34-.64.22-.76.49-.11,2.06-.07,2.62-.02.13,0,.22.05.34.1v-1.08ZM48.42,19.34h-5.42l-2.64,3.13-2.74-3.13h-4.98c-.21,0-.21.98,0,.98h4.2c.23,0,2.55,3.04,2.93,3.42.13.13.91.29,1.07.1.67-.82,1.31-1.69,2.01-2.49.12-.14.86-1.03.93-1.03h4.64v-.98ZM50.18,19.34c-.28.05-1.16-.14-1.26.16l.08,4.43h4.15c.18,0,.2-1.08.15-1.08h-3.13v-3.52ZM37.18,22.08c0-.18.07-.98-.15-.98h-4.5s-.15.14-.15.15v2.49h4.79c.05,0,.03-.98-.15-.98h-3.37v-.68h3.52ZM48.42,21.1h-4.74s-.15.14-.15.15v2.59h4.74c.21,0,.21-.98,0-.98h-3.37v-.78h3.52v-.98Z"/>
  <line class="st2" x1="26.5" y1="57" x2="6" y2="57"/>
  <line class="st2" x1="57" y1="16" x2="64" y2="16"/>
  <line class="st2" x1="16" y1="57" x2="16" y2="64"/>
  <line class="st2" x1="57" y1="26.5" x2="57" y2="6"/>
  <path class="st2" d="M26.5,57c0-16.8,13.7-30.5,30.5-30.5"/>
  <path class="st2" d="M57,57"/>
  <path class="st2" d="M6,57C6,28.8,28.8,6,57,6"/>
</svg>