<?xml version="1.0" encoding="UTF-8"?>
<svg id="Layer_1" xmlns="http://www.w3.org/2000/svg" version="1.1" viewBox="0 0 32 96">
  <!-- Generator: Adobe Illustrator 29.5.1, SVG Export Plug-In . SVG Version: 2.1.0 Build 141)  -->
  <defs>
    <style>
      .st0, .st1 {
        fill: none;
        stroke: #000;
      }

      .st0, .st1, .st2 {
        stroke-linejoin: round;
      }

      .st0, .st2 {
        stroke-width: .5px;
      }

      .st3 {
        fill: #f3b229;
      }

      .st1 {
        stroke-linecap: round;
        stroke-width: 1.5px;
      }

      .st2 {
        fill: #fff;
        stroke: #fff;
      }

      .st4 {
        fill: #103f79;
      }
    </style>
  </defs>
  <g>
    <path class="st4" d="M29,56c0,16.02-12.98,29-29,29s-29-12.98-29-29H29Z"/>
    <path class="st3" d="M-29,56c0-16.02,12.98-29,29-29s29,12.98,29,29H-29Z"/>
  </g>
  <line class="st1" y1="16" y2="26.9"/>
  <line class="st1" y1="85.1" y2="96"/>
  <circle class="st1" cy="56" r="29"/>
  <g>
    <line class="st0" x1="4" y1="76.1" x2="-4" y2="76.1"/>
    <rect class="st2" x="-4.5" y="75.6" width="9" height="1"/>
  </g>
  <polygon class="st2" points="4.5 37.9 .5 37.9 .5 33.9 -.5 33.9 -.5 37.9 -4.5 37.9 -4.5 38.9 -.5 38.9 -.5 42.9 .5 42.9 .5 38.9 4.5 38.9 4.5 37.9"/>
</svg>