<svg xmlns="http://www.w3.org/2000/svg" viewBox="0 0 32 96" version="1.1"><defs>
    <style>
      .st0, .st1, .st2, .st3, .st4 {
        stroke: #000;
        stroke-linecap: round;
        stroke-linejoin: round;
      }

      .st0, .st2 {
        stroke-width: .55px;
      }

      .st1 {
        stroke-width: .57px;
      }

      .st2, .st3 {
        fill: none;
      }

      .st3 {
        stroke-width: 1.5px;
      }

      .st4 {
        stroke-width: .5px;
      }
    </style>
  </defs><g class="st3"><path d="M-0.3291643073223532 15.749721242692322 C0.09975793820321563 18.01285379091278, -0.24600516635477546 20.62411063341424, 0.11038903037086131 26.748885031845422 M-0.04025235299952329 16.018668360011652 C-0.11287828371338546 19.12851125747897, 0.08041442140527069 22.40525407445617, 0.10300619448535143 27.102014002399518" stroke="#000" stroke-width="1.5" fill="none"/></g><g class="st3"><path d="M-0.3291643073223532 84.74972124269232 C0.09975793820321563 87.01285379091277, -0.24600516635477546 89.62411063341423, 0.11038903037086131 95.74888503184542 M-0.04025235299952329 85.01866836001165 C-0.11287828371338546 88.12851125747896, 0.08041442140527069 91.40525407445617, 0.10300619448535143 96.10201400239951" stroke="#000" stroke-width="1.5" fill="none"/></g><g class="st3"><path d="M-20.859509239084222 36.192637988410304 C-20.859509239084222 36.192637988410304, -20.859509239084222 36.192637988410304, -20.859509239084222 36.192637988410304 M-20.859509239084222 36.192637988410304 C-20.859509239084222 36.192637988410304, -20.859509239084222 36.192637988410304, -20.859509239084222 36.192637988410304 M-28.419566761409815 53.517214040777745 C-21.886827823089742 45.532195532517484, -14.267312680283252 37.60598094908304, -5.97794739750033 29.38229594268546 M-28.009309025002594 53.46840815371192 C-23.972525485824296 48.656401097690306, -19.229518652049332 43.49541507467743, -6.761856375046128 28.912040829478656 M-26.279417411511446 61.0063474826677 C-16.940364269300453 50.28174270719211, -7.615413518109017 38.71956164962252, 1.1998993357491368 28.740939295993314 M-26.14797771619042 60.731880323791344 C-15.67495099783289 48.46563930179759, -5.149153326206451 36.458050003594224, 1.3942010875639195 28.680801147365138 M-24.055500742887478 68.02772312731645 C-17.329263057877654 59.88288579922923, -10.74339038918797 52.04787276719593, 8.239963636077432 30.183861092438974 M-24.126464026701967 67.3590501180773 C-12.334575749254517 54.0344900549429, -0.5387221176375696 40.46534725281121, 8.516912419437853 30.178582683352808 M-22.78430357194418 75.12622622863022 C-12.150933460778656 62.80351326820099, -1.751402996258991 50.5136134089259, 14.795993062078301 32.1594622109287 M-22.513145642084122 74.59065850336667 C-12.244246851094783 63.16628043043765, -2.862581849960919 52.02515460623584, 15.108407747528796 31.728743591738542 M-16.84115819513526 77.73608476440143 C-8.860617566772392 67.9529329765036, -1.698509152909449 58.57255421798126, 18.97191746037398 36.40566289603705 M-17.295909790431228 78.0218282328425 C-7.516031775091567 66.8969105866938, 2.3435201479739782 55.5858627946997, 18.584085424318356 35.96545045498753 M-11.843627823819507 81.36401313965015 C-2.2121560071092428 70.74207784344546, 6.355432405642663 59.19343592878707, 23.01993925552025 40.665306955779194 M-11.991788677242685 80.89145754941546 C-4.419202574851406 72.36276207660754, 3.2102342165060853 62.941126433341935, 22.964452317721687 40.65533248150557 M-7.27312114940316 84.5310684832827 C1.2462389385443144 74.80048940408312, 10.374355779498048 64.92041248247686, 26.46138413111085 46.05046714406137 M-7.074824050565367 84.13032648238249 C4.56314458797233 70.74650657425589, 16.021038314653126 57.304481820849134, 26.389724492191913 45.36803688808952 M0.8065486276695424 84.5898602283142 C7.066727374802793 76.7933286272991, 15.071117953235749 68.99663336552717, 26.968142000786997 54.4596547409037 M0.6991237700158649 84.28455642764935 C7.328042256216227 76.56852767189594, 13.798039971310747 69.42193426090138, 27.19501817972962 54.19968848015013 M9.926073508011347 83.13414591409641 C14.053547938068029 78.43229420018487, 18.06504002395679 73.26161770393777, 26.82893438511397 63.82909500954411 M10.063035603473134 83.03145594995843 C13.61105419337106 78.85136342364252, 17.009737376066067 74.84237860300453, 26.570367156759456 64.33041510881594" stroke="none" stroke-width="0.75" fill="none"/><path d="M-3.471509596311599 27.325733521661686 C2.2665268063113015 26.276184168064457, 10.717884463282719 28.15967956859415, 15.85934290608174 31.532174149790613 C21.00080134888076 34.904668730987076, 25.697165121587535 41.56492117786439, 27.37724106048253 47.560701008840475 C29.057316999377523 53.55648083981656, 28.371331320981792 61.79336106627086, 25.93979853945171 67.50685313564709 C23.50826575792163 73.22034520502332, 18.262535642567524 79.017830904657, 12.788044371302043 81.84165342509786 C7.313553100036562 84.66547594553872, -0.9120231278927919 85.84315184872162, -6.907149088141172 84.4497882582922 C-12.902275048389551 83.05642466786279, -19.612634382161925 78.4997234712128, -23.18271139018824 73.48147188252136 C-26.752788398214552 68.46322029382992, -28.717257225273087 60.55789786621201, -28.327611136299044 54.340278726143524 C-27.937965047325 48.12265958607504, -25.03879245116258 40.703911476298096, -20.84483485634398 36.17575704211046 C-16.65087726152538 31.647602607922828, -6.209486730548409 28.551922497554575, -3.1638655673874467 27.17135212101771 C-0.11824440422648452 25.790781744480842, -2.6866161113981772 27.396472996179288, -2.5711078773782066 27.892334782889264 M0.962884525094496 27.033034281623408 C6.692725470048547 26.81875012933631, 14.302386499992469 29.85868603009895, 18.790790820472008 34.0555873469965 C23.279195140951547 38.25248866389404, 26.96428544613454 45.99850224816584, 27.893310447971725 52.21444218300867 C28.82233544980891 58.4303821178515, 27.514763265753384 66.13617571291908, 24.364940831495115 71.35122695605348 C21.215118397236846 76.56627819918788, 14.849323659869388 81.566301697413, 8.994375842422114 83.50474964181504 C3.1394280249748396 85.44319758621708, -5.113671490629501 85.33891156021399, -10.764746073188531 82.98191462246571 C-16.415820655747563 80.62491768471743, -22.083513499965616 74.79669751454233, -24.91207165293207 69.36276801532537 C-27.740629805898525 63.928838516108414, -29.010410829325572 56.43499658907177, -27.736094990987255 50.37833762716394 C-26.461779152648937 44.3216786652561, -21.997668142620313 36.95991994985141, -17.266176622902154 33.022814243878344 C-12.534685103183996 29.085708537905273, -2.4052953342807832 27.6045652746964, 0.6528541273216872 26.75570339132552 C3.711003588924158 25.906841507954635, 1.1338255134402586 27.427368975277215, 1.082720146712671 27.929642943653047" stroke="#000" stroke-width="1.5" fill="none"/></g><g class="st3"><path d="M-48.478784447014334 79.63595817118883 C-44.66009750932455 79.7528998572111, -41.96000462681055 80.34807059352397, -31.839434137642385 79.63474186450243 M-48.05854887709022 80.02715397819877 C-43.38184704467655 79.85208374565244, -38.352222696393724 79.86978379314542, -31.850172808021306 80.14838400349021 M-32.24440859818029 80.08777998030955 C-29.31576957460427 77.61623693102858, -26.493461295109846 74.87109367375719, -24.03246257264376 72.34921340225725 M-32.083379257966534 79.90455900071196 C-29.99245672068057 77.98776269355986, -27.67311809103704 75.71206106921582, -24.085113898070034 72.06551723985397 M-24.63469970263541 72.41065408624708 C-23.71282901839271 64.35238241489976, -24.309502971925884 55.188514201194046, -24.360646856203676 40.215604192391034 M-24.287174722366036 72.38897666912526 C-24.19624797215238 59.619939316734666, -23.86041528692022 47.29531095329672, -23.969233551435174 40.12723867278546 M-24.144472355792193 39.59471941973822 C-26.204161406819203 38.270192404825764, -28.275226089407386 36.285271679564566, -32.19178113069807 31.890166554171252 M-24.074160106672153 40.05507708361843 C-26.25144480401656 37.64583877636419, -28.574062468224625 35.38867100639802, -32.081931311035994 32.08333351424275 M-32.46481246978045 32.15727122813463 C-35.87012071102858 32.26470736575126, -40.051718319952485 31.732977467298507, -48.00649853736162 32.22910301715135 M-31.892468154281378 31.949724683612587 C-36.19893371388316 32.002659136205914, -40.3433166013658 31.928350516706704, -47.77641569361091 31.838053707927465" stroke="#000" stroke-width="1.5" fill="none"/></g><g><g class="st1"><path d="M-19.054063019546554 48.362192389685326 C-19.054063019546554 48.362192389685326, -19.054063019546554 48.362192389685326, -19.054063019546554 48.362192389685326 M-19.054063019546554 48.362192389685326 C-19.054063019546554 48.362192389685326, -19.054063019546554 48.362192389685326, -19.054063019546554 48.362192389685326 M-19.071149121286705 57.599133731564486 C-18.759465928275368 57.16669436984105, -18.34950955868154 56.74811218294504, -17.854123451697184 56.125034525275815 M-19.144006364351497 57.60715375103985 C-18.841527471194052 57.2737333499492, -18.53231067795356 56.938600688678676, -17.79039595090459 56.05522528452112" stroke="none" stroke-width="0.75" fill="none"/><path d="M-19.017954416763036 48.286348431419576 C-18.874753656599673 48.29073374464541, -18.773500173505393 48.313052647257145, -18.39397878016159 48.28630281991884 M-19.002195582890884 48.301018274182454 C-18.82681926417537 48.29445314046196, -18.638208351114763 48.29511689224295, -18.394381480300797 48.30556440013088 M-18.625326160086317 48.380926473302765 C-18.390754228754343 52.00964274792559, -18.229377837879955 55.37090435450337, -18.337735622717066 58.82975582442991 M-18.476869341620244 48.21201064919773 C-18.520745382086893 51.24320071514416, -18.368049694524668 53.93873855273518, -18.386276144900357 58.568209514760404 M-18.41604099107906 58.60931962258741 C-18.543444490719583 58.618220775139925, -18.716291117038576 58.592768445146675, -19.00781940568611 58.60946812577173 M-18.40561524167098 58.60866930007375 C-18.63921323041804 58.60030722775958, -18.862135340640318 58.60569369301103, -18.996077006543054 58.60681716018356 M-19.041000133527444 58.31855449680797 C-19.142634699785262 56.34562588457204, -19.260394894146472 53.773573048627, -19.17680763311498 48.19874190686457 M-18.97617758137826 58.74296929007116 C-18.96651937763732 55.662804953959764, -19.081732173580342 52.74264445638749, -19.07553444454912 48.37682716938201" stroke="#000" stroke-width="1.5" fill="none"/></g><g class="st1"><path d="M-20.487764650883435 57.71599852236918 C-20.487764650883435 57.71599852236918, -20.487764650883435 57.71599852236918, -20.487764650883435 57.71599852236918 M-20.487764650883435 57.71599852236918 C-20.487764650883435 57.71599852236918, -20.487764650883435 57.71599852236918, -20.487764650883435 57.71599852236918" stroke="none" stroke-width="0.75" fill="none"/><path d="M-20.49237682560078 57.35372705431574 C-19.901494055700503 58.63357023017179, -19.763250899339223 60.113882017881124, -18.535484222403564 63.55323833915228 M-20.323525089813057 57.510910538470675 C-19.860961116078933 59.265823874261756, -19.243468027253 61.11296843652213, -18.539799047856967 63.75962107528637 M-18.740076834657902 63.75030895753932 C-18.040297462126123 61.77953581960262, -17.403820819959527 59.64583885148986, -16.961292568610776 57.64283059107753 M-18.64778679072273 63.64530031604292 C-18.24891051793855 62.092744859514134, -17.717790606084925 60.33257460926734, -16.991468393279657 57.4802370459653 M-17.088225450934843 57.55125792423077 C-17.788944698957728 57.600214263269606, -18.73960114371218 57.46022644830674, -20.343006731273608 57.55207469174452 M-17.030883829190397 57.547681150405666 C-18.315672767299226 57.50168975267771, -19.541744373521766 57.53131531156067, -20.278423535986803 57.5374943810096 M-20.3 57.5 C-20.3 57.5, -20.3 57.5, -20.3 57.5 M-20.3 57.5 C-20.3 57.5, -20.3 57.5, -20.3 57.5" stroke="#000" stroke-width="1.5" fill="none"/></g></g><g><g class="st4"><path d="M-0.3220301258175198 39.47045328291388 C-0.3220301258175198 39.47045328291388, -0.3220301258175198 39.47045328291388, -0.3220301258175198 39.47045328291388 M-0.3220301258175198 39.47045328291388 C-0.3220301258175198 39.47045328291388, -0.3220301258175198 39.47045328291388, -0.3220301258175198 39.47045328291388 M-3.478202512939875 52.533802845037016 C-2.2314697408945325 50.80404539814329, -0.5916442625192285 49.12971665055925, 1.3899001654182042 46.63740601988234 M-3.769631485199039 52.5658829229385 C-2.5597159125692754 51.23220131857585, -1.3228487396073128 49.89167067349378, 1.6448101685885752 46.35816905686357" stroke="none" stroke-width="0.75" fill="none"/><path d="M3.272463232490986 52.574924138203386 C3.0744408411600093 49.885114975915684, 1.8846460255344353 47.65397474417001, 0.1433793645402557 38.773838021408565 M3.6477180225704284 52.924247496209425 C2.5147578801114654 48.61615670434684, 1.667733119146354 44.536405675006634, 0.13379012986527825 39.2325014160294 M-0.3125559773293112 39.21225528782487 C-1.226344961479833 44.090146703358876, -2.2423538294588883 48.5893145149036, -3.613631407524929 53.21870048388649 M-0.10662753134199829 38.977947604822994 C-1.17657783450957 43.05213777330965, -1.9734698332509155 46.65831307354847, -3.680963271456138 52.85590256284478 M-3.897838889975101 53.01494201191142 C-1.6471373286209998 53.09547843194216, 0.043099003698677515 52.78156636202544, 3.6035606632046404 53.016773551184684 M-3.769254647275433 53.006921367576346 C-0.9030349359344688 52.914057083828524, 2.0948539438787854 52.98049015526302, 3.7483835859689862 52.98407830893062 M3.7 52.9 C3.7 52.9, 3.7 52.9, 3.7 52.9 M3.7 52.9 C3.7 52.9, 3.7 52.9, 3.7 52.9" stroke="#000" stroke-width="1.5" fill="none"/></g><g><g class="st2"><path d="M-0.583518544798717 71.9563240211364 C0.15680493146404628 68.16087703933009, -0.45613875388875613 64.98255948829465, 0.19568964474834508 52.454841647362336 M-0.07135644395370037 72.43309391092976 C-0.11754860833492131 66.37159838019404, 0.22510664164815103 60.60597088858951, 0.18260189022403217 53.080843004253694" stroke="#000" stroke-width="1.5" fill="none"/></g><g class="st0"><path d="M-0.582131033831164 52.49448094657178 C-0.582131033831164 52.49448094657178, -0.582131033831164 52.49448094657178, -0.582131033831164 52.49448094657178 M-0.582131033831164 52.49448094657178 C-0.582131033831164 52.49448094657178, -0.582131033831164 52.49448094657178, -0.582131033831164 52.49448094657178 M-0.5992171355713044 61.73142228845093 C-0.2875339425599689 61.2989829267275, 0.12242242703385675 60.880400739831494, 0.6178085340182147 60.257323082162266 M-0.6720743786360952 61.739442307926296 C-0.36959548547865445 61.40602190683564, -0.06037869223816412 61.07088924556512, 0.6815360348108074 60.18751384140757 M-0.676343501403834 70.88477562677663 C-0.22933091095704652 70.37925460047418, 0.26909069119635115 69.78200665777136, 0.562532715976216 69.47846881703339 M-0.7157520012444809 70.95707981890615 C-0.42925234256951994 70.60869341014781, -0.15877774161857963 70.31664423004888, 0.6244566368423178 69.40805294464207" stroke="none" stroke-width="0.75" fill="none"/><path d="M-0.5299240279383958 52.3772473856993 C-0.29125609433278443 52.38455624107569, -0.12250028917565942 52.42175441209525, 0.510035366397351 52.3771713665314 M-0.5036593048181385 52.40169712363742 C-0.21136544029228385 52.390755234103274, 0.10298608147539208 52.39186148707159, 0.5093641994986683 52.40927400021814 M0.062473475560545944 52.557138783112165 C0.5172467875350266 59.770738234277815, 0.8305990028250962 66.46500823292882, 0.6209017034620047 73.34612781442702 M0.35073914248496296 52.22914689164609 C0.26594135488234466 58.25126369548962, 0.5624378355856985 63.621628599613906, 0.5266482623293995 72.8382709024474 M0.47326501486822964 72.91553270431235 C0.260925848800689 72.93036795856655, -0.027151861730963057 72.8879474085778, -0.5130323428101837 72.91578020961956 M0.49064126388169826 72.91444883345626 C0.10131128263659772 72.90051204626599, -0.270225567733869 72.90948948835172, -0.49346167757175863 72.91136193363928 M-0.5796119097620249 72.35350387729704 C-0.7760261218000203 68.39957886198536, -1.004686693375185 63.28230583947152, -0.8433157924562693 52.20338234342635 M-0.4537428764626384 73.17761027198286 C-0.4364997819628567 67.05761702070012, -0.6602139488425106 61.24831083454192, -0.6466688243672252 52.54917896967381" stroke="#000" stroke-width="1.5" fill="none"/></g></g></g></svg>