<svg xmlns="http://www.w3.org/2000/svg" viewBox="0 0 32 96" version="1.1"><defs>
    <style>
      .st0 {
        stroke-width: 1.5px;
      }

      .st0, .st1, .st2 {
        fill: none;
      }

      .st0, .st1, .st2, .st3 {
        stroke: #000;
        stroke-linejoin: round;
      }

      .st0, .st2 {
        stroke-linecap: round;
      }

      .st1, .st3 {
        stroke-width: .5px;
      }

      .st2 {
        stroke-width: 1.5px;
      }
    </style>
  </defs><g class="st2"><path d="M-0.3291643073223532 15.749721242692322 C0.09975793820321563 18.01285379091278, -0.24600516635477546 20.62411063341424, 0.11038903037086131 26.748885031845422 M-0.04025235299952329 16.018668360011652 C-0.11287828371338546 19.12851125747897, 0.08041442140527069 22.40525407445617, 0.10300619448535143 27.102014002399518" stroke="#000" stroke-width="1.5" fill="none"/></g><g class="st2"><path d="M-0.3291643073223532 84.74972124269232 C0.09975793820321563 87.01285379091277, -0.24600516635477546 89.62411063341423, 0.11038903037086131 95.74888503184542 M-0.04025235299952329 85.01866836001165 C-0.11287828371338546 88.12851125747896, 0.08041442140527069 91.40525407445617, 0.10300619448535143 96.10201400239951" stroke="#000" stroke-width="1.5" fill="none"/></g><g><g class="st1"><path d="M3.760607776492834 71.91797908559441 C2.466930210739374 71.94831636903285, 0.6139556173980236 72.24590173718929, -3.9197170688211918 71.9173709322512 M3.970725561454892 72.11357698909937 C1.5606051550060507 71.9760486335784, -0.6730539935082204 71.9848986573249, -3.9250864040106537 72.1741920017451" stroke="#000" stroke-width="1.5" fill="none"/></g><g class="st3"><path d="M-4.506907268670851 71.60794590365913 C-4.506907268670851 71.60794590365913, -4.506907268670851 71.60794590365913, -4.506907268670851 71.60794590365913 M-4.506907268670851 71.60794590365913 C-4.506907268670851 71.60794590365913, -4.506907268670851 71.60794590365913, -4.506907268670851 71.60794590365913 M2.6691211385561946 72.53427180989944 C2.824962735061864 72.31805212903771, 3.0299409198587783 72.10876103558971, 3.2776339733509596 71.79722220675511 M2.6326925170237994 72.53828181963712 C2.7839319636025213 72.37157161909178, 2.9385403602227673 72.20400528845653, 3.309497723747256 71.76231758637776" stroke="none" stroke-width="0.75" fill="none"/><path d="M-4.769316251445562 71.39522647129371 C-2.62130484899506 71.46100616968126, -1.1025026025809348 71.79578970885724, 4.590318297576159 71.39454229878261 M-4.532933743363246 71.6152741127368 C-1.9022889626305548 71.51679710692949, 0.9268747332785282 71.52675338364429, 4.584277795488015 71.68346600196324 M4.478123673778027 71.6078569391556 C4.500897647693753 71.96015949008986, 4.5165652584582565 72.28649556839838, 4.5060450851731 72.62230639072135 M4.492536957124248 71.5914573445823 C4.488277147370204 71.88574764224701, 4.503101971405372 72.14745034492574, 4.50133241311647 72.59691354512236 M4.2593851338140665 72.73979433881118 C2.3483326392062005 72.87331162709891, -0.24436675557866766 72.49152667720018, -4.6172910852916536 72.74202188657596 M4.415771374935284 72.73003950110636 C0.9118015437293794 72.60460841639377, -2.4320301096048214 72.68540539516546, -4.441155098145828 72.70225740275345 M-4.503980595488101 72.57267519386485 C-4.5138480291053655 72.38112872665747, -4.525281057684124 72.13141485909, -4.517165789622814 71.59016911717131 M-4.497687143823132 72.61388051359914 C-4.496749454139545 72.31483543242328, -4.507935162483528 72.03132470450365, -4.507333441218361 71.60745894848368" stroke="#000" stroke-width="1.5" fill="none"/></g></g><g class="st3"><path d="M-4.7790894516920055 42.22105568801511 C-4.7790894516920055 42.22105568801511, -4.7790894516920055 42.22105568801511, -4.7790894516920055 42.22105568801511 M-4.7790894516920055 42.22105568801511 C-4.7790894516920055 42.22105568801511, -4.7790894516920055 42.22105568801511, -4.7790894516920055 42.22105568801511 M-0.234648691831989 46.14044746430082 C0.12941636881939655 45.68660933804077, 0.5508076315078295 45.18903060212873, 1.041702806309776 44.703418303483346 M-0.2386630619195232 46.162788968937974 C0.1729596741231752 45.639549790374076, 0.6223425889151556 45.15518285888262, 1.0727224865676626 44.63440403192974 M2.359636298169245 43.11080788977429 C2.591309603306383 42.86750731732729, 2.8714882946836746 42.58889682368456, 3.0433094646900765 42.35813103595858 M2.3760055824395763 43.132528902934716 C2.580052888837342 42.9088039783718, 2.7776859028691816 42.664120667245655, 3.0431459675382695 42.38596002108527" stroke="none" stroke-width="0.75" fill="none"/><path d="M4.380303888246417 41.80898954279721 C3.733465105369687 41.82415818451643, 2.8069778086990116 41.972950868594644, 0.5401414655894041 41.8086854661256 M4.485362780727446 41.90678849454969 C3.2803025775030252 41.8380243167892, 2.16347300324589 41.842449328662454, 0.5374567979946733 41.93709600087255 M0.4124946951121092 41.93142775662243 C0.5148892522156239 40.65986304067075, 0.5775596952736378 39.28443243421614, 0.5241803406924009 37.9892255628854 M0.4701478284969926 41.86582937832922 C0.44673406982868913 40.86201696019619, 0.5060333659693599 39.72785416211932, 0.5053296524658799 37.88765418048948 M0.47326501486822964 37.915532704312355 C0.260925848800689 37.93036795856655, -0.027151861730963057 37.8879474085778, -0.5130323428101837 37.91578020961955 M0.49064126388169826 37.91444883345626 C0.10131128263659772 37.90051204626597, -0.270225567733869 37.90948948835171, -0.49346167757175863 37.91136193363927 M-0.515922381952405 37.790700775459406 C-0.5703434813380241 38.99244564525783, -0.6160755956530571 39.96152091361582, -0.5686631584912538 41.86067646868527 M-0.4907485752925277 37.95552205439657 C-0.46282662980705497 38.98480777394027, -0.5075694631829858 40.07623090650886, -0.5293337648734451 41.929835793934764 M-0.6162031174451112 41.93931780703365 C-1.4675301777571441 41.966176841437814, -2.512929579988122 41.83324436682462, -4.501624634340406 41.957275754287835 M-0.47311703857034443 41.88743117090314 C-1.5497334284707904 41.90066478405148, -2.585829150341451 41.882087629176674, -4.444103923402727 41.85951342698186 M-4.476465190071613 41.908810053188354 C-4.510632266780734 42.19655458925292, -4.494417399546504 42.492133922223005, -4.52401138426736 42.92647003026679 M-4.512893811604008 41.91282006292604 C-4.501830319756642 42.1230226311367, -4.4889984843079 42.33465493834577, -4.492147633871063 42.891565409889445 M-4.431802048757672 42.803304418399925 C-3.001732126697898 42.97523843666911, -1.4646652106195688 42.96615529677272, -0.5782857299596071 43.0095291198045 M-4.510619048438966 42.947912802658976 C-3.660629238300025 42.850478880424795, -2.8443643656000495 42.87050562264472, -0.45443788822740316 42.868697375021874 M-0.542261846140027 42.87842497475445 C-0.5921505415797234 44.27263968937099, -0.4995803487658501 45.815014880672095, -0.5485332012921572 46.79384042628109 M-0.5459552317485213 42.91500826712698 C-0.4691554363027215 44.31100093018264, -0.4957081146493554 45.677387842200694, -0.5482512062415481 46.84602351423353 M-0.5098257851786911 46.899523639399554 C-0.3126432660780847 46.893880169527236, -0.0703972894884646 46.907315370576086, 0.516673983912915 46.929877460319545 M-0.5045628802385181 46.90520800649188 C-0.22136168043129142 46.908837845282626, 0.07644844614900656 46.91653383518942, 0.513663337090984 46.892944718888025 M0.40868295423686507 47.01488396771252 C0.376603181964159 45.873119552358986, 0.47212823927998543 44.78914940275252, 0.6020574425905943 42.83481129057705 M0.47311342183500527 46.857985397540034 C0.520983489613235 45.940859800390896, 0.5285380958124996 45.009897495172915, 0.5564986759796738 42.90758821483701 M0.5544772004336119 42.88894213087857 C2.0237222895771265 42.81019752404094, 3.578665544614196 42.83761188170314, 4.460878956243396 42.808096824958916 M0.47629999700933695 42.957155637703835 C1.4125795753672719 42.90010008422882, 2.2758617553487417 42.85285708157569, 4.543296739496291 42.956912225447596 M4.484883058648556 42.910124024469404 C4.498029989464581 42.49319621151313, 4.500992255075277 42.121328537259245, 4.4806649970822034 41.88007415505126 M4.493314416864887 42.89021648495458 C4.499712382007762 42.53167550648563, 4.504609055865928 42.16389104924165, 4.507774641076103 41.88969938456081 M4.5 41.9 C4.5 41.9, 4.5 41.9, 4.5 41.9 M4.5 41.9 C4.5 41.9, 4.5 41.9, 4.5 41.9" stroke="#000" stroke-width="1.5" fill="none"/></g><g class="st0"><path d="M-20.34162722429809 35.317812962268626 C-20.34162722429809 35.317812962268626, -20.34162722429809 35.317812962268626, -20.34162722429809 35.317812962268626 M-20.34162722429809 35.317812962268626 C-20.34162722429809 35.317812962268626, -20.34162722429809 35.317812962268626, -20.34162722429809 35.317812962268626 M-20.123365226754355 44.64285483603131 C-18.253266068686344 42.04821866569072, -15.79352785112339 39.53672554431468, -12.82121120921724 35.7982595982993 M-20.560508685143102 44.690974952883536 C-18.745635326198453 42.690452546339564, -16.890334566755513 40.67965657871645, -12.438846204461685 35.37940415377114 M-20.12894891128029 53.27297752527316 C-14.624180457697571 47.027706619193346, -8.609500857654085 39.86981444665582, -5.115950621517788 36.1910711069495 M-20.52303390968676 53.99601944656839 C-17.134554205414425 49.898900682976404, -13.90465025639138 46.37428377956932, -4.496711412856769 35.48691238303637 M-20.74540361978898 62.867901542548225 C-12.641115672053049 53.16700767312066, -3.872963596361532 44.29173825424116, 2.841364648108628 35.27543391216165 M-20.763870547831452 63.05081800441085 C-12.366369384975902 53.81911085131847, -4.405653715358644 44.48694588280857, 2.8427746233616737 35.536349351923825 M-20.794765814259584 72.18557069226958 C-14.429790096742837 64.60028586851529, -7.134122322147453 57.407776555034495, 11.882121988107393 35.811877679753565 M-20.689507715456124 72.29925803411611 C-11.475173979711906 61.94965146448047, -2.0819238191490905 51.639605542902316, 11.821909051668772 35.07322285112318 M-17.18263688715532 77.46058149700683 C-7.874797349318262 66.14419264514902, 2.1108702381250417 55.05664962899855, 19.86748214909123 35.05119119907704 M-16.860484549164617 76.6760886461444 C-8.393063665125087 67.27140578629798, -0.061933926113859894 57.67296946307296, 19.63968831603663 35.41507582037684 M-7.989054000891907 76.23896900544348 C2.7910225485515885 63.0538998392836, 13.975217348760188 50.421776730997266, 20.409552053739333 42.627520946043276 M-8.379940018013283 76.58003653956982 C-1.6865678251668434 69.07731720905258, 4.564516808340012 61.59535309241309, 20.82164097000381 43.37159794848665 M-0.7552262037996669 76.65954511326794 C7.561746723591246 66.68417824858152, 15.66985943611886 57.65548135440564, 20.15430149256951 51.907841157776346 M-0.5865990394730588 76.26139432297144 C7.205855962333093 67.54959250791161, 14.96925167428198 58.67836307663818, 20.696494372447493 52.100345747967296 M6.863028091705653 76.93162611916368 C10.70637064587012 72.23043936286614, 15.20019255312582 67.82266388809099, 20.429705457156516 61.212774177736954 M7.485540042399677 76.40599807042335 C11.359809936146412 71.61048453391845, 15.964782889090001 66.81175781883157, 20.43806702080182 61.633812900170106 M15.047407053171655 76.76745771253769 C16.44972648589034 75.64740597677306, 17.32917503712153 74.47649033573933, 20.33060616707661 70.87110117058616 M15.049676792307755 76.89003555121188 C16.98287059845621 74.59108484662433, 18.939829921018028 72.64283642403849, 20.415915931446932 70.69873709041039" stroke="none" stroke-width="0.75" fill="none"/><path d="M-21.098480558767914 35.04494771398604 C-12.121156778745354 35.228050118453055, -4.542075567692518 35.97201353884414, 20.700707327947022 35.043427330628035 M-20.573186096362768 35.53394247274846 C-8.494940194860098 35.38072080857828, 4.0244588514789985 35.402845867944514, 20.687283989973366 35.68548000436276 M20.062473475560545 35.65713878311217 C20.48829396759346 49.740223965980114, 20.80164618288353 63.30397969633341, 20.620901703462003 76.94612781442702 M20.35073914248496 35.32914689164609 C20.282276061490922 46.940008568018676, 20.578772542194276 57.89911834467202, 20.5266482623294 76.4382709024474 M19.965300297364593 76.81065408624708 C10.295392706058918 77.14885469095633, -0.889285774528983 76.30044369118139, -20.760646856203675 76.81560419239104 M20.312825277633966 76.78897666912526 C4.371327475458382 76.4956715489231, -11.214307709224524 76.67522039063796, -20.369233551435173 76.72723867278546 M-20.579611909762026 75.95350387729704 C-20.737713249201327 66.95675634425133, -20.966373820776493 56.79666080400348, -20.84331579245627 35.30338234342635 M-20.453742876462638 76.77761027198285 C-20.49843844801262 64.9548602823168, -20.722152614892277 53.44279735777526, -20.646668824367225 35.64917896967381" stroke="#000" stroke-width="1.5" fill="none"/></g></svg>