<svg xmlns="http://www.w3.org/2000/svg" viewBox="0 0 80 96" version="1.1"><defs>
    <style>
      .st0 {
        fill: #fff;
      }

      .st1 {
        fill: none;
        stroke: #000;
        stroke-linecap: round;
        stroke-linejoin: round;
        stroke-width: 1.5px;
      }
    </style>
  </defs><g class="st1"><path d="M-0.5984805587679147 79.54494771398603 C4.375066928006708 79.69288316898718, 7.950371845811605 80.43684658937826, 21.200707327947022 79.54342733062803 M-0.0731860963627696 80.03394247274846 C6.0694706518203025 79.81822925951853, 12.6532805448398 79.84035431888476, 21.187283989973366 80.18548000436276" stroke="#000" stroke-width="1.5" fill="none"/></g><g class="st1"><path d="M47.40151944123208 22.44494771398604 C48.15933551457457 17.97163401627913, 47.53067532446913 14.131273580901324, 48.20070732794702 -0.4565726693719625 M47.92681390363723 22.933942472748456 C47.88557594095744 15.856363552454859, 48.23701722299136 9.082239031270143, 48.187283989973366 0.18548000436276196" stroke="#000" stroke-width="1.5" fill="none"/></g><g class="st1"><path d="M20.501519441232087 79.44494771398604 C21.254711202360767 73.16993468431757, 20.626051012255328 67.52787491697819, 21.300707327947023 47.543427330628035 M21.026813903637233 79.93394247274847 C21.00462681873493 70.18534843346104, 21.35606810076885 60.74020879328251, 21.287283989973368 48.18548000436276 M20.662473475560546 48.15713878311217 C21.191394253239036 37.77815282382071, 21.504746468529106 26.879837412014602, 21.220901703462005 16.44612781442702 M20.950739142484963 47.82914689164609 C20.824108569665253 39.53862438779325, 21.120605050368606 30.59634998422116, 21.1266482623294 15.938270902447403" stroke="#000" stroke-width="1.5" fill="none"/></g><g class="st0"><path d="" stroke="#000" stroke-width="1.5" fill="none"/></g><g class="st1"><path d="M10.4426908371998 14.377744625288061 C10.4426908371998 14.377744625288061, 10.4426908371998 14.377744625288061, 10.4426908371998 14.377744625288061 M10.4426908371998 14.377744625288061 C10.4426908371998 14.377744625288061, 10.4426908371998 14.377744625288061, 10.4426908371998 14.377744625288061 M-3.9797200804233293 39.64255608063701 C2.7388640182369466 32.39206667081431, 8.579901000601462 24.501863836865038, 22.83553349472049 9.543962607997033 M-3.264289686049495 39.38312289998445 C3.702708222546864 31.39345911625216, 10.773959322509384 23.30228125293973, 23.123137049408886 9.055150971467171 M-2.9921640162269396 48.84148934473824 C7.128729116015307 36.51617327094622, 18.21253556177283 24.295899194231666, 33.45227675231702 6.1762428136089955 M-3.7207364468748496 48.92168953949195 C4.524313373928812 39.63753744117698, 12.86221406967934 30.25168558479482, 34.08955176024295 5.478150406062058 M-3.8420852091704765 58.15584118869603 C13.302411921954363 38.52238804824511, 30.909806780229964 18.028602488728417, 40.69356938516485 7.112003660347627 M-4.236170207576946 58.87888310999126 C5.04149456882606 47.882649241302765, 14.179425337377673 37.5616249356956, 41.31280859382587 6.407844936434494 M-1.178244772726633 63.977217304857234 C15.953673102454315 43.83409718383738, 33.7192347157365 24.608492086084585, 47.99482562580076 6.9510760457825445 M-1.1967117007691044 64.16013376671987 C15.91881974893114 44.79053526080366, 32.6474710683447 25.372014124221284, 47.996235601053804 7.21199148554472 M2.052688177755293 69.52133855346473 C12.50239527615501 57.19693834530803, 23.901408924005793 45.28406957533352, 55.067405878828 9.751648554042777 M2.1579462765587536 69.63502589531126 C17.198665947167594 52.735283113677404, 32.3466464215761 35.805177246974125, 55.00719294238938 9.01299372541239 M5.008758075869055 75.55105893842476 C19.117949568155097 58.696969585414216, 33.944075054220164 42.041116726205885, 60.42852992384981 12.009800394257343 M5.3309104138597565 74.76656608756232 C17.956262427359597 60.56836181929678, 30.50946467226932 46.11298667228969, 60.2007360907952 12.373685015557147 M8.953868730208416 80.36712308864357 C30.099923428541015 55.2162861875121, 51.627385565665776 30.685595107396434, 64.25089497345046 15.81258224010972 M8.562982713087042 80.7081906227699 C21.19756629027719 66.53962655984621, 33.31783223390622 52.30594168779017, 64.66298388971492 16.556659242553092 M14.219519440329128 83.05182793713635 C35.41228840510803 58.24720706143653, 56.34828353688563 34.46171950060964, 68.58805761521418 19.809935390283385 M14.388146604655736 82.65367714683985 C34.38846919645472 59.84747143842292, 54.36869534509312 36.92238623640583, 69.13025049509217 20.002439980474332 M19.213537619872426 86.34274726392319 C34.69068514974248 68.19820536255465, 50.92149153170844 50.288573752029336, 72.79981575374423 24.586610928907362 M19.836049570566452 85.81711921518286 C36.70131354560429 65.8803621967294, 54.36079478152891 46.06414158109615, 72.80817731738952 25.007649651340515 M25.25452326041306 88.41987841246477 C36.34073389382767 76.77999966275465, 46.235168482652945 64.99969017465253, 75.85788569763437 30.660540984887895 M25.26019760825331 88.72632300915024 C43.21893515507227 67.78621027750907, 61.26406311144154 47.785104563006016, 76.07116010856018 30.229630784448503 M31.548758641554286 90.71523809189016 C45.49305065764617 74.29181783756981, 60.029393022927785 57.44143342163857, 77.11522507249731 38.60946747257679 M31.508614940678946 90.93865313826167 C46.84780784422605 72.86772591201499, 62.59166774542259 55.08237663826609, 77.42542187507618 37.91932475704073 M39.576180562851874 89.73768573521448 C53.694327107736385 74.06478301929143, 68.73400364465708 57.63757870227944, 79.49200505288886 44.4957654499892 M39.9035662482585 90.17210599842294 C52.01787356952152 76.42568761538796, 64.06410153181233 62.22143683018523, 79.48873510985271 45.05234515252298 M49.155171995928065 88.79193846201235 C56.79626083426417 80.09845150617261, 65.13031109011456 70.59426603479214, 79.42828395644071 54.294877241922464 M48.70009832097359 89.13057473459924 C55.43691005204568 81.39816783528116, 62.31764238341601 73.54090470509963, 79.33684538638087 54.063661883583215 M64.47078171325151 81.00650826029268 C66.4649588270018 78.42114205830725, 68.41706075169547 75.92481699106652, 74.7948545016083 68.56250733459271 M63.86056409237211 80.87173079021063 C66.71215860364498 77.42283559551704, 69.87296025298701 74.29654544046909, 74.48542579350202 68.76933833638108" stroke="none" stroke-width="0.75" fill="none"/><path d="M32.21830702703937 4.9881862598122595 C39.42438618049745 3.527674265134717, 49.33233013001128 5.351468502905886, 56.28094134990265 8.750392165419491 C63.229552569794016 12.149315827933096, 69.99482671689356 18.641873167093483, 73.9099743463876 25.381728234893885 C77.82512197588164 32.12158330269429, 79.98823128981078 41.35256177032932, 79.77182712686695 49.18952257222191 C79.55542296392312 57.026483374114505, 76.96098265422536 65.89191995850001, 72.61154936872458 72.40349304624945 C68.2621160832238 78.91506613399889, 60.816352763030224 85.15293427034867, 53.6752274138623 88.25896109871857 C46.53410206469438 91.36498792708848, 37.28336209631164 92.39376617142362, 29.764797273717072 91.03965401646886 C22.2462324511225 89.6855418615141, 14.219407972166817 85.43910638825909, 8.563838478294869 80.13428816899003 C2.9082689844229206 74.82946994972096, -2.1462556557569754 66.7966586451735, -4.168619689514621 59.21074470085449 C-6.190983723272266 51.624830756535495, -5.978024069257234 42.05928994884444, -3.5703457242510055 34.61880450307604 C-1.1626673792447773 27.178319057307647, 4.18385012097415 19.519216799377713, 10.277450380522748 14.567832026244112 C16.371050640071346 9.616447253110511, 29.150975819441214 6.372005280465068, 32.991255833040576 4.910495864274431 C36.83153584663994 3.4489864480837937, 33.287973595494286 5.094003010156457, 33.31913046211893 5.79877552910029 M38.0905734603269 4.917048761302702 C45.472005818302016 4.56433327725034, 55.01972086197068 7.7979046968392325, 61.45411187527377 12.13268463652836 C67.88850288857685 16.467464576217488, 73.73169109716099 23.723329029570362, 76.69691954014542 30.925728399437467 C79.66214798312984 38.12812776930457, 80.51500794420585 47.673566128994246, 79.24548253318036 55.347080855730994 C77.97595712215488 63.02059558246774, 74.21172844583175 71.13509385026188, 69.07976707399253 76.96681675985795 C63.9478057021533 82.79853966945402, 55.872458041363714 88.29498694634344, 48.453714302145016 90.33741831330744 C41.03497056292632 92.37984968027143, 31.971348325165785 91.71446146958439, 24.567304638680362 89.2214049616419 C17.16326095219494 86.7283484536994, 8.945437300913476 81.34756090466242, 4.029452183232472 75.37907926565242 C-0.8865329344485309 69.41059762664243, -4.0038980420865675 61.178164472364436, -4.928606067405653 53.410515127581924 C-5.853314092724738 45.64286578279941, -4.822956820379558 35.805421698463135, -1.518795968682042 28.773183196957348 C1.7853648830154731 21.740944695451564, 8.284000297003026 15.252707099757927, 14.896359042779437 11.21708411854722 C21.50871778855585 7.181461137336512, 34.19878596909528 5.479242135829609, 38.155356505976435 4.559445309693096 C42.11192704285759 3.639648483556583, 38.57072554640045 4.922910466118012, 38.63578226406636 5.698303161728141" stroke="#000" stroke-width="1.5" fill="none"/></g><g class="st1"><path d="M42.956364665895705 47.89078745135665 C44.101970747202635 47.925869957163336, 44.91199861195683 48.104421178057194, 47.94816975870728 47.89042255935073 M43.08243533687293 48.00814619345963 C44.48544588659704 47.95562512369573, 45.99433319108188 47.96093513794363, 47.94494815759361 48.04451520104706" stroke="#000" stroke-width="1.5" fill="none"/></g><g class="st1"><path d="M47.40151944123208 47.64494771398604 C48.183895750554576 52.7406593571417, 47.555235560449134 58.46932426262647, 48.20070732794702 72.54342733062803 M47.92681390363723 48.13394247274846 C47.78439461231701 55.24242162888869, 48.13583589435093 62.65435518413783, 48.187283989973366 73.18548000436276" stroke="#000" stroke-width="1.5" fill="none"/></g><g class="st1"><path d="M47.40151944123208 72.54494771398603 C43.9471178307198 72.61885674036152, 39.094473651237784 73.3628201607526, 27.10070732794702 72.54342733062803 M47.92681390363723 73.03394247274846 C41.57505548408255 72.68668454874776, 35.6644502093643 72.708809608114, 27.087283989973365 73.18548000436276" stroke="#000" stroke-width="1.5" fill="none"/></g><g class="st1"><path d="M26.301519441232085 22.54494771398604 C31.27506692800671 22.692883168987183, 34.8503718458116 23.436846589378266, 48.10070732794702 22.543427330628038 M26.82681390363723 23.033942472748457 C32.9694706518203 22.818229259518535, 39.5532805448398 22.84035431888476, 48.087283989973365 23.185480004362763" stroke="#000" stroke-width="1.5" fill="none"/></g><g class="st1"><path d="M47.40151944123208 95.54494771398603 C48.15928413332775 91.05161513481289, 47.53062394322231 87.19123581796885, 48.20070732794702 72.54342733062803 M47.92681390363723 96.03394247274846 C47.88578761737719 88.92668560668825, 48.237228899411114 82.12288313973696, 48.187283989973366 73.18548000436276" stroke="#000" stroke-width="1.5" fill="none"/></g><g><g class="st1"><path d="M26.201519441232087 37.54494771398604 C26.981378069460394 41.65973416529596, 26.352717879354955 46.40747387893498, 27.000707327947023 57.543427330628035 M26.726813903637233 38.03394247274846 C26.594766756884756 43.68820228632539, 26.946208038918677 49.64591649901122, 26.987283989973367 58.18548000436276" stroke="#000" stroke-width="1.5" fill="none"/></g><g class="st1"><path d="M26.201519441232087 12.544947713986039 C26.981378069460394 16.65973416529596, 26.352717879354955 21.40747387893498, 27.000707327947023 32.543427330628035 M26.726813903637233 13.033942472748459 C26.594766756884756 18.688202286325396, 26.946208038918677 24.645916499011218, 26.987283989973367 33.18548000436276" stroke="#000" stroke-width="1.5" fill="none"/></g><g class="st1"><path d="M26.201519441232087 62.54494771398604 C26.981378069460394 66.65973416529596, 26.352717879354955 71.40747387893498, 27.000707327947023 82.54342733062803 M26.726813903637233 63.03394247274846 C26.594766756884756 68.68820228632539, 26.946208038918677 74.64591649901122, 26.987283989973367 83.18548000436276" stroke="#000" stroke-width="1.5" fill="none"/></g></g><g><path d="M42.7 43.3 C42.70694208778441 42.60151944123208, 42.74494771398604 43.571101820096374, 42.60113288797439 43.78563541136682 M42.35595787204802 42.84244162999093 C42.474941430222245 43.177778257895255, 42.79428686214611 42.80112265484407, 43.65990948630497 43.93081342713907 M42.987247294384986 43.86214725766703 C43.00977770862759 46.23126408847049, 43.36301566693962 48.53094962578639, 43.09878282459453 52.44972600243613 M43.30776928805374 43.777303641894825 C43.27820626665629 45.67887251454777, 43.3040258413104 47.57043929102458, 43.22855253594183 52.3234624478016 M43.2 52.3 C42.69921329654753 53.125037645921104, 42.992206257954244 52.88827770911157, 42.401478284969926 52.35829378329217 M43.2532965246588 52.1765418048948 C43.578728948961945 51.98509534196928, 43.25725219918416 53.24090681808069, 42.411883688699454 52.677537211347364 M42.492654647718865 52.9510640772954 C37.129080783208984 50.36273890131761, 30.616976296641393 48.66700037154978, 27.959763606079992 47.67033615725438 M42.80402510024153 52.88076904263054 C37.88166285624283 51.16547168397864, 33.416732680198464 49.809917704456915, 27.28263035140241 47.87497119574238 M27.22689126211867 47.84359006718615 C33.34526437089018 46.52303036660283, 39.74403573243025 44.3611560783979, 43.141679600356795 43.49957401358739 M27.383324512330514 48.118672315755006 C31.213357458690037 47.05746561555008, 35.438951953064056 45.431298183348126, 42.77819358220022 43.279840605385495 M42.7 43.29999999999999 C42.7 43.29999999999999, 42.7 43.3, 42.7 43.3 M42.7 43.29999999999999 C42.7 43.29999999999999, 42.7 43.3, 42.7 43.3" stroke="#000" stroke-width="1.5" fill="none"/></g></svg>