<svg xmlns="http://www.w3.org/2000/svg" viewBox="0 0 64 64" version="1.1"><defs>
    <style>
      .st0 {
        fill: none;
        stroke: #000;
        stroke-linecap: round;
        stroke-linejoin: round;
        stroke-width: 1.5px;
      }
    </style>
  </defs><g class="st0"><path d="M25.901519441232086 56.54494771398604 C22.56723111951724 56.6199117488455, 17.834700228832663 57.363875169236586, 6.20070732794702 56.543427330628035 M26.426813903637232 57.03394247274846 C20.253123158682136 56.688559295219555, 14.520585558563468 56.71068435458579, 6.187283989973366 57.18548000436276" stroke="#000" stroke-width="1.5" fill="none"/></g><g class="st0"><path d="M56.79053180443123 15.840731699895114 C58.46120733967051 15.891893687529862, 59.64249797577038 16.15228088466674, 64.07024756478145 15.840199565719812 M56.97438486627303 16.01187986546196 C59.02044191795402 15.93528663872294, 61.220902570327745 15.943030409501121, 64.06554939649068 16.064918001526966" stroke="#000" stroke-width="1.5" fill="none"/></g><g class="st0"><path d="M15.79053180443123 56.840731699895116 C16.063482324311135 58.28090695785359, 15.843451257774232 59.942615857627246, 16.070247564781457 63.840199565719814 M15.97438486627303 57.011879865461964 C15.928168364909665 58.99087080021389, 16.051172813621537 61.07607077465393, 16.065549396490677 64.06491800152696" stroke="#000" stroke-width="1.5" fill="none"/></g><g class="st0"><path d="M56.40151944123208 26.04494771398604 C57.16056866449826 22.052087171468884, 56.531908474392814 18.69217989128083, 57.20070732794702 5.543427330628037 M56.92681390363723 26.533942472748457 C56.880495706883444 20.16863425085321, 57.23193698891737 14.106780428066847, 57.187283989973366 6.185480004362762" stroke="#000" stroke-width="1.5" fill="none"/></g><g class="st0"><path d="M26.5 57 C26.20694208778441 39.601519441232085, 39.74494771398604 26.671101820096375, 56.401132887974384 26.58563541136682 M26.15595787204802 56.54244162999093 C25.974941430222245 40.17777825789526, 39.79428686214611 25.901122654844077, 57.459909486304966 26.730813427139072" stroke="#000" stroke-width="1.5" fill="none"/></g><g class="st0"><path d="" stroke="#000" stroke-width="1.5" fill="none"/></g><g class="st0"><path d="M6 57 C5.70694208778441 28.201519441232087, 28.34494771398604 6.171101820096373, 56.401132887974384 6.0856354113668205 M5.65595787204802 56.54244162999093 C5.474941430222243 28.77777825789526, 28.39428686214611 5.401122654844076, 57.459909486304966 6.230813427139074" stroke="#000" stroke-width="1.5" fill="none"/></g></svg>