<svg xmlns="http://www.w3.org/2000/svg" viewBox="0 0 32 96" version="1.1"><defs>
    <style>
      .st0 {
        fill: none;
        stroke: #000;
        stroke-linecap: round;
        stroke-linejoin: round;
        stroke-width: 1.5px;
      }
    </style>
  </defs><g class="st0"><path d="M15.664850887089967 95.74517071983219 C16.09006231961012 93.56522168412803, 15.738012613151074 91.73972647532821, 16.112396103650333 84.5443193051517 M15.959015786036849 96.01900778473913 C15.93248490187943 92.53753342862427, 16.129292019818426 89.22599353601038, 16.104879034385085 84.90386880244314 M15.730246180145834 84.89688278224057 C12.21501773748459 83.557905226665, 8.588108522971527 81.87492196613162, 4.674541072401348 80.37505688309768 M15.90797429591046 84.69466174954427 C12.73398936392192 83.68799642206758, 9.808904735969987 82.27203383400966, 4.6164297937480265 80.0619413705665 M4.065300297364592 80.41065408624708 C10.87245065977864 78.22111803082869, 16.163740199339315 74.9710377115023, 27.139353143796324 71.11560419239103 M4.4128252776339645 80.38897666912526 C13.278731290233507 76.52847979489668, 22.468453425076977 73.09657372953325, 27.530766448564826 71.02723867278546 M27.320388090237973 70.25350387729704 C21.4946262542887 69.06047548270107, 15.657363077623993 66.67370636003345, 4.256684207543731 61.20338234342635 M27.44625712353736 71.07761027198285 C21.154459513549952 68.10745479853301, 14.588167120565918 65.38598274876773, 4.4533311756327745 61.54917896967381 M4.018984412774444 61.596589035168286 C9.977559128084927 59.33361976964176, 14.99467256119266 56.419082672835884, 27.39187682829797 52.286378771439196 M4.734414807148277 61.33715585451573 C10.721646743942648 58.85957489731163, 16.880857943002727 56.27619650146365, 27.679480382986366 51.79756713490933 M27.870696198567746 52.176201063767074 C20.648063529798314 49.46931237849816, 14.412274890983031 46.950613102963565, 4.1197723146528 43.22940060533583 M27.142123767919838 52.25640125852078 C22.40951017622389 50.049183405067176, 17.738990254667772 47.95000107229441, 4.757047322578728 42.531308197788896 M4.940989756211638 42.21652209199965 C13.20383286703184 39.3801178506583, 21.988648550620226 35.64358701901585, 27.00857135020196 33.847645599022506 M4.5469047578051685 42.93956401329488 C9.351970307604223 40.56154037138313, 13.993626198322325 38.78056109825015, 27.627810558862983 33.143486875109375 M27.26971881939081 33.23349036974509 C23.12460837070801 31.583506062810343, 19.401171853435464 30.34931618945515, 15.850386025680573 28.272740406293615 M27.258333168231008 33.346266193713404 C23.559647180412494 31.836525730292042, 19.571231229951593 30.21255765851103, 15.851255335743307 28.433605936960465 M15.876195106748492 28.593997856434434 C15.80850304344505 25.992343191374093, 16.318635447653232 23.619459823768587, 16.21009219730273 16.376456000026316 M15.942507708994672 28.665620881797746 C15.984175656540168 25.10277907420136, 16.17132568387486 21.634490979449822, 16.172158047346397 15.91110345798917" stroke="#000" stroke-width="1.5" fill="none"/></g></svg>