<?xml version="1.0" encoding="UTF-8"?>
<svg id="Layer_1" xmlns="http://www.w3.org/2000/svg" version="1.1" viewBox="0 0 32 96">
  <!-- Generator: Adobe Illustrator 29.5.1, SVG Export Plug-In . SVG Version: 2.1.0 Build 141)  -->
  <defs>
    <style>
      .st0, .st1, .st2, .st3, .st4, .st5, .st6 {
        stroke: #000;
        stroke-linejoin: round;
      }

      .st0, .st2 {
        stroke-width: .55px;
      }

      .st0, .st2, .st5, .st6 {
        stroke-linecap: round;
      }

      .st1, .st4 {
        stroke-width: .39px;
      }

      .st2, .st4, .st5 {
        fill: none;
      }

      .st3 {
        stroke-width: .33px;
      }

      .st5 {
        stroke-width: 1.5px;
      }

      .st6 {
        stroke-width: .5px;
      }
    </style>
  </defs>
  <line class="st5" y1="16" y2="27"/>
  <line class="st5" y1="85" y2="96"/>
  <circle class="st5" cy="56" r="29"/>
  <g>
    <line class="st4" x1="-37.4" y1="38" x2="-43.7" y2="38"/>
    <rect class="st1" x="-44" y="37.6" width="7" height=".8"/>
  </g>
  <polygon class="st3" points="-37.5 72.8 -40.2 72.8 -40.2 70.1 -40.9 70.1 -40.9 72.8 -43.5 72.8 -43.5 73.3 -40.9 73.3 -40.9 76.1 -40.2 76.1 -40.2 73.3 -37.5 73.3 -37.5 72.8"/>
  <polyline class="st5" points="-24.1 39.9 -32 32 -48 32"/>
  <polyline class="st5" points="-48 80 -32 80 -24.1 72.1"/>
  <g>
    <polygon class="st6" points="3.7 52.9 0 39.1 -3.7 52.9 3.7 52.9"/>
    <g>
      <line class="st2" y1="72.4" y2="52.9"/>
      <rect class="st0" x="-.5" y="52.4" width="1" height="20.5"/>
    </g>
  </g>
</svg>