<?xml version="1.0" encoding="UTF-8"?>
<svg id="Layer_1" xmlns="http://www.w3.org/2000/svg" version="1.1" viewBox="0 0 32 96">
  <!-- Generator: Adobe Illustrator 29.5.1, SVG Export Plug-In . SVG Version: 2.1.0 Build 141)  -->
  <defs>
    <style>
      .st0 {
        fill: none;
        stroke: #000;
        stroke-linecap: round;
        stroke-linejoin: round;
        stroke-width: 1.5px;
      }
    </style>
  </defs>
  <path class="st0" d="M8.3,40c0-2.3,3.9-3.5,7.7-3.5,6,0,13.5,4.5,13.5,11.4"/>
  <path class="st0" d="M8.3,56c0,2.3,3.9,3.5,7.7,3.5,6,0,13.5-4.5,13.5-11.4"/>
  <path class="st0" d="M8.3,56c0-2.3,3.9-3.5,7.7-3.5,6,0,13.5,4.5,13.5,11.4"/>
  <path class="st0" d="M8.3,72c0,2.3,3.9,3.5,7.7,3.5,6,0,13.5-4.5,13.5-11.4"/>
  <path class="st0" d="M8.3,72c0-2.3,3.9-3.5,7.7-3.5,6,0,13.5,4.5,13.5,11.4"/>
  <path class="st0" d="M16,96v-4.5c6,0,13.5-4.5,13.5-11.4"/>
  <path class="st0" d="M8.3,40c0,2.3,3.9,3.5,7.7,3.5,6,0,13.5-4.5,13.5-11.4"/>
  <path class="st0" d="M16,16v4.5c6,0,13.5,4.5,13.5,11.4"/>
  <path class="st0" d="M8.3,40c0-2.3,4.4-3.5,8.2-3.5"/>
</svg>