<?xml version="1.0" encoding="UTF-8"?>
<svg id="Layer_1" xmlns="http://www.w3.org/2000/svg" version="1.1" viewBox="0 0 32 96">
  <!-- Generator: Adobe Illustrator 29.5.1, SVG Export Plug-In . SVG Version: 2.1.0 Build 141)  -->
  <defs>
    <style>
      .st0 {
        fill: none;
        stroke: #000;
        stroke-linecap: round;
        stroke-linejoin: round;
        stroke-width: 1.5px;
      }
    </style>
  </defs>
  <path class="st0" d="M7.4,42.7c0-2.6,4.3-3.9,8.6-3.9,6.7,0,15,5,15,12.7"/>
  <path class="st0" d="M7.4,60.6c0,2.6,4.3,3.9,8.6,3.9,6.7,0,15-5,15-12.7"/>
  <path class="st0" d="M7.4,60.6c0-2.6,4.3-3.9,8.6-3.9,6.7,0,15,5,15,12.7"/>
  <path class="st0" d="M7.4,78.4c0,2.6,4.3,3.9,8.6,3.9,6.7,0,15-5,15-12.7"/>
  <path class="st0" d="M7.4,96c0,2.6,4.3,3.9,8.6,3.9,6.7,0,15-5,15-12.7"/>
  <path class="st0" d="M7.4,78.4c0-2.6,4.3-3.9,8.6-3.9,6.7,0,15,5,15,12.7"/>
  <path class="st0" d="M7.4,42.7c0,2.6,4.3,3.9,8.6,3.9,6.7,0,15-5,15-12.7"/>
  <path class="st0" d="M16,16v5c6.7,0,15,5,15,12.7"/>
  <path class="st0" d="M7.4,42.7c0-2.6,4.9-3.9,9.1-3.9"/>
  <path class="st0" d="M7.4,96c0-2.6,4.3-3.9,8.6-3.9,6.7,0,15,5,15,12.7"/>
  <path class="st0" d="M7.4,113.8c0,2.6,4.3,3.9,8.6,3.9,6.7,0,15-5,15-12.7"/>
  <path class="st0" d="M7.4,113.8c0-2.6,4.3-3.9,8.6-3.9,6.7,0,15,5,15,12.7"/>
  <path class="st0" d="M7.4,131.7c0,2.6,4.3,3.9,8.6,3.9,6.7,0,15-5,15-12.7"/>
  <path class="st0" d="M7.4,149.3c0,2.6,4.3,3.9,8.6,3.9,6.7,0,15-5,15-12.7"/>
  <path class="st0" d="M16,170.8c6.7,0,15-5,15-12.7"/>
  <path class="st0" d="M7.4,131.7c0-2.6,4.3-3.9,8.6-3.9,6.7,0,15,5,15,12.7"/>
  <path class="st0" d="M7.4,149.3c0-2.6,4.3-3.9,8.6-3.9,6.7,0,15,5,15,12.7"/>
  <path class="st0" d="M7.4,96c0-2.6,4.9-3.9,9.1-3.9"/>
  <line class="st0" x1="-16" y1="96" x2="7.4" y2="96"/>
  <line class="st0" x1="16" y1="176" x2="16" y2="170.8"/>
</svg>