<?xml version="1.0" encoding="UTF-8"?>
<svg id="Layer_1" xmlns="http://www.w3.org/2000/svg" version="1.1" viewBox="0 0 96 64">
  <!-- Generator: Adobe Illustrator 29.5.1, SVG Export Plug-In . SVG Version: 2.1.0 Build 141)  -->
  <defs>
    <style>
      .st0 {
        isolation: isolate;
      }

      .st1 {
        fill: none;
        stroke: #000;
        stroke-linecap: round;
        stroke-linejoin: round;
        stroke-width: 1.5px;
      }
    </style>
  </defs>
  <rect class="st1" x="-96" y="-42" width="192" height="106"/>
  <g class="st0">
    <path d="M-14.5,56.1v-.6h.5c.7,0,1.2-.1,1.3-.2s.2-.4.2-.8v-10.5c0-.4-.1-.6-.3-.8s-.5-.2-1.2-.2h-.5v-.6h6.3c1.5,0,2.7.4,3.7,1.1s1.5,1.5,1.5,2.5c0,.7-.3,1.4-1,2-.7.6-1.5,1-2.5,1.3,1.3.5,2.1,1.2,2.4,2.3l.3,1.6c.1.4.1.7.1.9s.1.4.1.7.1.5.2.6.1.3.2.4.2.2.3.3.3.1.4.1c.3,0,.6-.1.8-.4s.4-.7.5-1.4c0-.2.1-.3.2-.3.2,0,.3.1.3.3s0,.4-.1.6-.1.5-.3.7c-.2.2-.3.5-.6.6s-.6.3-.9.3c-1,0-1.9-.3-2.5-.8-.3-.2-.5-.5-.6-.8s-.2-.6-.2-.8v-1.2c0-.8,0-1.3-.1-1.7s-.3-.7-.6-1c-.5-.5-1.1-.7-1.9-.7h-2.3v5.1c0,.4.1.6.2.8.2.1.6.2,1.3.2h.5v.6c-.5,0-1.5-.1-2.9-.1s-2.3-.2-2.8-.1ZM-10.7,49h2.2c.7,0,1.3-.1,1.8-.3s.8-.4,1.1-.7.4-.6.5-.9.1-.7.1-1.1c0-.5-.1-.9-.2-1.2s-.3-.6-.5-.8-.5-.4-.7-.5-.5-.2-.9-.3-.6-.2-.9-.2h-2.1c-.1,0-.3.1-.3.1,0,0-.1.1-.1.2v5.7Z"/>
    <path d="M.1,51.6c0-1.3.4-2.3,1.2-3.2s1.8-1.3,2.9-1.3c1.2,0,2.1.4,2.7,1.1s.9,1.7.9,2.8c0,.2,0,.3-.1.4s-.2.1-.4.1H1.7c0,1.4.2,2.4.6,3,.6.9,1.3,1.3,2.3,1.3h.4c.1,0,.4-.1.7-.2.3-.1.6-.3.9-.6s.5-.7.7-1.2c0-.2.1-.3.2-.3.2,0,.3.1.3.2s-.1.3-.2.6-.3.6-.6.9c-.2.3-.6.6-1.1.8s-1,.4-1.5.4c-1.2,0-2.2-.4-3.1-1.3s-1.2-2.1-1.2-3.5ZM1.7,51h4.7c0-.3,0-.6-.1-.9s0-.7-.2-1.1-.4-.8-.7-1.1-.7-.4-1.2-.4c-.2,0-.4,0-.7.1s-.5.2-.8.5-.5.6-.7,1.1-.2,1.1-.3,1.8Z"/>
    <path d="M9,48.1v-.6h1.6v-2.3c0-1,.3-1.8,1-2.3s1.4-.8,2.1-.8c.5,0,.9.1,1.3.4s.5.6.5,1c0,.3-.1.5-.2.6s-.4.2-.6.2c-.3,0-.5-.1-.6-.3-.2-.2-.2-.4-.2-.6,0-.4.2-.7.6-.8-.2-.1-.4-.1-.7-.1-.5,0-.9.2-1.3.7-.4.5-.6,1.2-.6,2v2.3h2.4v.6h-2.3v6.4c0,.4.1.6.2.8.2.1.6.2,1.3.2h.4v.6c-.5,0-1.4-.1-2.5-.1h-2.3v-.6c.7,0,1.1,0,1.3-.1s.2-.3.2-.8v-6.5h-1.6v.1Z"/>
  </g>
  <g class="st0">
    <path d="M-86.4,5.5v-.6h.5c.7,0,1.2-.1,1.4-.2s.3-.4.3-.8V-6.6c0-.4-.1-.6-.3-.8s-.6-.2-1.4-.2h-.5v-.6c.5,0,1.5.1,3.1.1s2.6,0,3-.1v.6h-.5c-.7,0-1.2.1-1.4.2s-.3.4-.3.8V3.9c0,.4.1.6.3.8.2.1.6.2,1.4.2h.5v.6c-.5,0-1.5-.1-3.1-.1-1.5,0-2.5,0-3,.1Z"/>
    <path d="M-79.1,5.5v-.6c.7,0,1.2,0,1.3-.1.2-.1.2-.3.2-.8V-1.4c0-.5-.1-.8-.3-.9-.2-.1-.6-.2-1.3-.2v-.6l2.8-.2V-1.2c.6-1.4,1.6-2.1,3-2.1,1,0,1.7.2,2.1.7.3.3.5.7.5,1.1.1.4.1,1,.1,2v3.8c0,.3.1.5.3.5s.6.1,1.2.1v.6c-1.4,0-2.1-.1-2.2-.1s-.9,0-2.3.1v-.6c.7,0,1.1,0,1.3-.1s.4-.4.4-.8V-.7c0-.7-.1-1.2-.3-1.6-.2-.4-.6-.6-1.2-.6-.7,0-1.3.3-1.9.9s-.8,1.4-.8,2.3v3.7c0,.4.1.7.3.8s.6.1,1.3.1v.6c-1.4,0-2.1-.1-2.2-.1s-.9,0-2.3.1Z"/>
  </g>
  <g class="st0">
    <path d="M53.6-1.3c0-2,.7-3.8,2-5.2s2.9-2.1,4.7-2.1,3.4.7,4.7,2.1c1.3,1.4,2,3.2,2,5.2s-.7,3.7-2,5.1c-1.3,1.4-2.9,2.1-4.7,2.1s-3.4-.7-4.7-2.1c-1.4-1.4-2-3.1-2-5.1ZM55.6-1.6c0,1.2.1,2.3.4,3.3.3.9.7,1.7,1.1,2.2.5.5,1,.9,1.5,1.1s1,.4,1.5.4,1-.1,1.5-.4c.5-.2,1-.6,1.5-1.1s.9-1.2,1.2-2.2c.3-1,.4-2.1.4-3.3,0-1-.1-1.9-.3-2.6-.1-.8-.4-1.4-.7-1.9s-.7-.9-1.1-1.2-.8-.5-1.2-.7c-.4-.1-.8-.2-1.1-.2-.5,0-.9.1-1.4.3s-1,.5-1.5,1-.9,1.1-1.2,2-.6,2.1-.6,3.3Z"/>
    <path d="M68.6-2.5v-.6l2.9-.2v7.4c0,.2.1.4.2.6s.3.4.5.5.6.1,1,.1c.7,0,1.3-.3,1.8-.9.4-.6.7-1.3.7-2.2V-1.4c0-.5-.1-.8-.3-.9s-.6-.2-1.3-.2v-.6l2.9-.2V3.8c0,.5.1.8.3.9.2.1.6.2,1.3.2v.6l-2.9.2v-1.8c-.6,1.2-1.4,1.8-2.6,1.8-.6,0-1.1-.1-1.5-.2s-.5-.3-.7-.5-.4-.5-.5-.8-.2-.6-.2-.9V-.7c0-.9-.1-1.4-.2-1.6s-.6-.2-1.4-.2Z"/>
    <path d="M79.5-2.5v-.4c.6,0,1.1-.3,1.5-.7.4-.4.7-.9.8-1.5.2-.5.2-1.1.2-1.7h.5v3.7h2.9v.6h-2.9V3.1c0,1.4.4,2.2,1.3,2.2.4,0,.7-.2,1-.6s.4-.9.4-1.6v-1.2h.5v1.1c0,.7-.2,1.4-.5,1.9s-.8.8-1.5.8c-.2,0-.5,0-.7-.1s-.5-.2-.8-.3c-.3-.2-.6-.4-.8-.8-.2-.4-.3-.9-.3-1.5V-2.5h-1.6Z"/>
  </g>
  <g class="st0">
    <path d="M-19.4-30.3l.7-4.1h.5c0,.2.1.3.2.4.1.1.3.1.7.2s.9.1,1.7.1h4.8c0,.3-.1.5-.2.7l-2.7,3.8c-.6.8-1,1.9-1.2,3.4-.1,1-.2,2.1-.2,3.3v1c0,.7-.3,1.1-.9,1.1s-.9-.4-.9-1.1c0-2.5.8-5.1,2.5-7.5.2-.3.6-.8,1.2-1.7s1-1.4,1-1.4h-4.1c-1.2,0-1.9,0-2,.1s-.3.7-.5,1.8h-.6v-.1Z"/>
    <path d="M-9.7-24c0-1.5,1-2.7,2.9-3.7-.8-.6-1.3-.9-1.5-1.1-.6-.7-.9-1.4-.9-2.2,0-.9.4-1.7,1.1-2.4.7-.6,1.6-1,2.6-1s1.8.3,2.5.8c.7.6,1.1,1.3,1.1,2.1,0,1.2-.8,2.3-2.4,3.1,1.1.7,1.7,1.1,2,1.4.7.7,1,1.5,1,2.5,0,1.1-.4,2-1.2,2.7-.8.7-1.8,1.1-2.9,1.1s-2.1-.3-2.9-1c-.8-.7-1.4-1.2-1.4-2.3ZM-8.7-24c0,.8.3,1.5.9,2.1s1.4.8,2.2.8,1.6-.2,2.2-.7.9-1.1.9-1.8c0-.3,0-.5-.1-.8,0-.2-.2-.4-.4-.6s-.3-.3-.4-.4-.3-.2-.5-.4l-2.5-1.6c-1.5.9-2.3,2.1-2.3,3.4ZM-8.3-31.7c0,.6.3,1.2,1,1.6l2.5,1.6c1.3-.8,2-1.7,2-2.8,0-.7-.3-1.3-.8-1.8-.5-.5-1.2-.7-1.9-.7s-1.4.2-1.9.6c-.6.4-.9.9-.9,1.5Z"/>
    <path d="M-.3-20.9v-.6c1,0,1.9-.4,2.6-1.2l1.9-2.4-2-2.6c-.5-.6-.8-1-1-1.1s-.7-.2-1.3-.2v-.6c.5,0,1.2.1,1.9.1.4,0,1.1,0,2.2-.1v.6c-.5,0-.7.2-.7.5,0,.1.1.2.2.4l1.6,2,1.2-1.6c.2-.2.3-.5.3-.7,0-.4-.2-.6-.6-.6v-.6c.5,0,1.2.1,1.9.1.6,0,1.1,0,1.6-.1v.6c-1,0-1.8.4-2.4,1-.3.3-.9,1-1.8,2.3l2.7,3.5c.2.3.4.5.7.5s.6.1,1.2.1v.6c-.7,0-1.4,0-2,0-.2,0-1,0-2.2.1v-.6c.2,0,.4-.1.5-.2s.2-.2.2-.3-.1-.3-.4-.7l-1.5-2c-1,1.2-1.6,1.9-1.7,2.2-.1.1-.1.2-.1.3,0,.4.2.6.6.6v.6c-1,0-1.6-.1-1.9-.1-.6.1-1.2.1-1.7.2Z"/>
    <path d="M10.2-20.9v-.6c1,0,1.9-.4,2.6-1.2l1.9-2.4-2-2.6c-.5-.6-.8-1-1-1.1s-.7-.2-1.3-.2v-.6c.5,0,1.2.1,1.9.1.4,0,1.1,0,2.2-.1v.6c-.5,0-.7.2-.7.5,0,.1.1.2.2.4l1.6,2,1.2-1.6c.2-.2.3-.5.3-.7,0-.4-.2-.6-.6-.6v-.6c.5,0,1.2.1,1.9.1.6,0,1.1,0,1.6-.1v.6c-1,0-1.8.4-2.4,1-.3.3-.9,1-1.8,2.3l2.7,3.5c.2.3.4.5.7.5s.6.1,1.2.1v.6c-.6,0-1.2-.1-1.9-.1-.2,0-1,0-2.2.1v-.6c.2,0,.4-.1.5-.2s.2-.2.2-.3-.1-.3-.4-.7l-1.5-2c-1,1.2-1.6,1.9-1.7,2.2-.1.1-.1.2-.1.3,0,.4.2.6.6.6v.6c-1,0-1.6-.1-1.9-.1-.7.2-1.2.2-1.8.3Z"/>
  </g>
</svg>