<?xml version="1.0" encoding="UTF-8"?>
<svg id="Layer_1" xmlns="http://www.w3.org/2000/svg" version="1.1" viewBox="0 0 317.48 317.48">
  <!-- Generator: Adobe Illustrator 29.5.1, SVG Export Plug-In . SVG Version: 2.1.0 Build 141)  -->
  <defs>
    <style>
      .st0 {
        stroke-linecap: square;
      }

      .st0, .st1, .st2 {
        fill: none;
      }

      .st0, .st1, .st2, .st3 {
        stroke: #000;
        stroke-linejoin: round;
      }

      .st0, .st2 {
        stroke-width: 1.5px;
      }

      .st1, .st3 {
        stroke-width: .5px;
      }

      .st2 {
        stroke-linecap: round;
      }
    </style>
  </defs>
  <polygon class="st2" points="45.35 301.35 45.35 45.35 301.35 173.35 45.35 301.35"/>
  <g>
    <line class="st1" x1="57.19" y1="246.35" x2="49.19" y2="246.35"/>
    <rect class="st3" x="48.69" y="245.85" width="9" height="1"/>
  </g>
  <polygon class="st3" points="57.69 98.89 53.69 98.89 53.69 94.89 52.69 94.89 52.69 98.89 48.69 98.89 48.69 99.89 52.69 99.89 52.69 103.89 53.69 103.89 53.69 99.89 57.69 99.89 57.69 98.89"/>
  <g>
    <polyline class="st0" points="45.35 109.35 57.47 109.35 57.47 141.35 66.62 141.35"/>
    <polyline class="st0" points="66.62 205.35 57.47 205.35 57.47 237.35 45.35 237.35"/>
  </g>
  <g>
    <line class="st0" x1="178.62" y1="173.35" x2="203.74" y2="173.35"/>
    <line class="st2" x1="203.96" y1="165.73" x2="216.18" y2="156.71"/>
    <line class="st2" x1="216.18" y1="190" x2="203.96" y2="180.98"/>
    <line class="st2" x1="216.18" y1="234.11" x2="216.18" y2="190.04"/>
    <polyline class="st2" points="216.18 156.67 216.18 152.33 216.18 147.7 239.56 147.7 239.56 173.35 301.35 173.35"/>
    <line class="st2" x1="203.83" y1="161.49" x2="203.83" y2="184.61"/>
    <circle class="st2" cx="211.49" cy="173.35" r="19.01"/>
    <path d="M215.65,189.65l-6.57-2.28c-.09-.04-.13-.18-.09-.26l2.28-3.11c.04-.09.18-.09.26,0l4.12,5.65h0Z"/>
  </g>
  <g>
    <polygon class="st2" points="66.62 229.35 66.62 117.35 178.62 173.35 66.62 229.35"/>
    <g>
      <line class="st1" x1="83.42" y1="205.35" x2="75.42" y2="205.35"/>
      <rect class="st3" x="74.92" y="204.85" width="9" height="1"/>
    </g>
    <g>
      <line class="st1" x1="83.42" y1="141.35" x2="75.42" y2="141.35"/>
      <rect class="st3" x="74.92" y="140.85" width="9" height="1"/>
    </g>
    <polygon class="st3" points="83.92 204.85 79.92 204.85 79.92 200.85 78.92 200.85 78.92 204.85 74.92 204.85 74.92 205.85 78.92 205.85 78.92 209.85 79.92 209.85 79.92 205.85 83.92 205.85 83.92 204.85"/>
  </g>
  <line class="st2" x1="117.17" y1="142.63" x2="117.17" y2="51.92"/>
  <line class="st2" x1="117.17" y1="294.79" x2="117.17" y2="204.08"/>
</svg>