<?xml version="1.0" encoding="UTF-8"?>
<svg id="Layer_1" xmlns="http://www.w3.org/2000/svg" version="1.1" viewBox="0 0 32 64">
  <!-- Generator: Adobe Illustrator 29.5.1, SVG Export Plug-In . SVG Version: 2.1.0 Build 141)  -->
  <defs>
    <style>
      .st0, .st1 {
        fill: none;
      }

      .st0, .st1, .st2 {
        stroke: #000;
        stroke-linejoin: round;
      }

      .st0, .st2 {
        stroke-width: .5px;
      }

      .st1 {
        stroke-linecap: round;
        stroke-width: 1.5px;
      }
    </style>
  </defs>
  <path class="st1" d="M-192,48.1V-8h24.58c1.97,0,3.89.58,5.53,1.67l81.89,54.33v.2l-81.89,54.33c-1.64,1.09-3.56,1.67-5.53,1.67h-24.58v-56.1Z"/>
  <g>
    <line class="st0" x1="-173.2" y1="80" x2="-181.2" y2="80"/>
    <rect class="st2" x="-181.7" y="79.5" width="9" height="1"/>
  </g>
  <g>
    <line class="st0" x1="-173.2" y1="16" x2="-181.2" y2="16"/>
    <rect class="st2" x="-181.7" y="15.5" width="9" height="1"/>
  </g>
  <polygon class="st2" points="-172.7 79.5 -176.7 79.5 -176.7 75.5 -177.7 75.5 -177.7 79.5 -181.7 79.5 -181.7 80.5 -177.7 80.5 -177.7 84.5 -176.7 84.5 -176.7 80.5 -172.7 80.5 -172.7 79.5"/>
</svg>