<?xml version="1.0" encoding="UTF-8"?>
<svg id="Layer_1" xmlns="http://www.w3.org/2000/svg" version="1.1" viewBox="0 0 32 96">
  <!-- Generator: Adobe Illustrator 29.5.1, SVG Export Plug-In . SVG Version: 2.1.0 Build 141)  -->
  <defs>
    <style>
      .st0, .st1 {
        fill: none;
      }

      .st0, .st1, .st2 {
        stroke: #000;
        stroke-linejoin: round;
      }

      .st0, .st2 {
        stroke-width: .5px;
      }

      .st1 {
        stroke-linecap: round;
        stroke-width: 1.5px;
      }
    </style>
  </defs>
  <line class="st1" y1="16" y2="27"/>
  <line class="st1" y1="85" y2="96"/>
  <circle class="st1" cy="56" r="29"/>
  <g>
    <line class="st0" x1="4" y1="76.1" x2="-4" y2="76.1"/>
    <rect class="st2" x="-4.5" y="75.6" width="9" height="1"/>
  </g>
  <polygon class="st2" points="4.5 37.9 .5 37.9 .5 33.9 -.5 33.9 -.5 37.9 -4.5 37.9 -4.5 38.9 -.5 38.9 -.5 42.9 .5 42.9 .5 38.9 4.5 38.9 4.5 37.9"/>
  <path class="st1" d="M-18.4,56h0l1.3-1.3.7-.7.6-.5.5-.5.5-.4.4-.4.4-.3.4-.3.4-.2.4-.2.3-.2.3-.2.3-.1.3-.1.3-.1.3-.1.3-.1.3-.1h2l.3.1.3.1.3.1.3.1.3.1.3.2.3.2.3.2.4.2.4.2.4.3.4.3.4.3.5.4.5.5.6.5.7.7.9.9,1.8,1.8.7.7.6.5.5.4.5.4.4.3.4.3.9.4.4.2.4.2.3.2.3.2.3.1.3.1.3.1.3.1.3.1h2.3l.3-.1.3-.1.3-.1.3-.1.3-.1.3-.2.3-.2.4-.2.4-.2.4-.3.4-.3.4-.3.4-.4.5-.4.5-.5.6-.6.7-.7,1.1-1h0"/>
</svg>