<?xml version="1.0" encoding="UTF-8"?>
<svg id="Layer_1" xmlns="http://www.w3.org/2000/svg" version="1.1" viewBox="0 0 32 96">
  <!-- Generator: Adobe Illustrator 29.5.1, SVG Export Plug-In . SVG Version: 2.1.0 Build 141)  -->
  <defs>
    <style>
      .st0 {
        fill: #646464;
      }

      .st1 {
        stroke-width: 1.5px;
      }

      .st1, .st2 {
        stroke: #000;
      }

      .st1, .st2, .st3 {
        stroke-linejoin: round;
      }

      .st1, .st3 {
        fill: none;
        stroke-linecap: round;
      }

      .st2 {
        stroke-width: .5px;
      }

      .st3 {
        stroke: #646464;
        stroke-dasharray: 2.83 .85;
        stroke-width: .43px;
      }
    </style>
  </defs>
  <line class="st1" y1="16" y2="27"/>
  <line class="st1" y1="85" y2="96"/>
  <circle class="st1" cy="56" r="29"/>
  <polyline class="st1" points="-17.4 39.6 -32 32 -48 32"/>
  <polyline class="st1" points="-48 80 -32 80 -17.4 71.8"/>
  <polygon class="st2" points="-34.3 39.2 -38.3 39.2 -38.3 35.2 -39.3 35.2 -39.3 39.2 -43.3 39.2 -43.3 40.2 -39.3 40.2 -39.3 44.2 -38.3 44.2 -38.3 40.2 -34.3 40.2 -34.3 39.2"/>
  <polyline class="st1" points="0 27 0 39.6 16 68.2"/>
  <line class="st1" y1="72.4" y2="85"/>
  <g>
    <path class="st3" d="M4.4,52.4c-5.4,2.6-9.9,4.1-18,4.4"/>
    <polygon class="st0" points="-12.8 55.5 -17.4 56.9 -12.7 57.9 -12.8 55.5"/>
  </g>
</svg>